G04 #@! TF.GenerationSoftware,KiCad,Pcbnew,(5.0.1)-4*
G04 #@! TF.CreationDate,2019-02-11T23:05:39+00:00*
G04 #@! TF.ProjectId,FT-8900-Headset,46542D383930302D486561647365742E,rev?*
G04 #@! TF.SameCoordinates,Original*
G04 #@! TF.FileFunction,Soldermask,Top*
G04 #@! TF.FilePolarity,Negative*
%FSLAX46Y46*%
G04 Gerber Fmt 4.6, Leading zero omitted, Abs format (unit mm)*
G04 Created by KiCad (PCBNEW (5.0.1)-4) date 11/02/2019 23:05:39*
%MOMM*%
%LPD*%
G01*
G04 APERTURE LIST*
%ADD10C,0.100000*%
G04 APERTURE END LIST*
D10*
G36*
X174307408Y-123519310D02*
X174307411Y-123519311D01*
X174307412Y-123519311D01*
X174505430Y-123579379D01*
X174505432Y-123579380D01*
X174505435Y-123579381D01*
X174687925Y-123676923D01*
X174847882Y-123808198D01*
X174979157Y-123968155D01*
X175076699Y-124150645D01*
X175136770Y-124348672D01*
X175157052Y-124554600D01*
X175136770Y-124760528D01*
X175076699Y-124958555D01*
X174979157Y-125141045D01*
X174847882Y-125301002D01*
X174687925Y-125432277D01*
X174505435Y-125529819D01*
X174505432Y-125529820D01*
X174505430Y-125529821D01*
X174307412Y-125589889D01*
X174307411Y-125589889D01*
X174307408Y-125589890D01*
X174153081Y-125605090D01*
X172850999Y-125605090D01*
X172696672Y-125589890D01*
X172696669Y-125589889D01*
X172696668Y-125589889D01*
X172498650Y-125529821D01*
X172498648Y-125529820D01*
X172498645Y-125529819D01*
X172316155Y-125432277D01*
X172156198Y-125301002D01*
X172024923Y-125141045D01*
X171927381Y-124958555D01*
X171867310Y-124760528D01*
X171847028Y-124554600D01*
X171867310Y-124348672D01*
X171927381Y-124150645D01*
X172024923Y-123968155D01*
X172156198Y-123808198D01*
X172316155Y-123676923D01*
X172498645Y-123579381D01*
X172498648Y-123579380D01*
X172498650Y-123579379D01*
X172696668Y-123519311D01*
X172696669Y-123519311D01*
X172696672Y-123519310D01*
X172850999Y-123504110D01*
X174153081Y-123504110D01*
X174307408Y-123519310D01*
X174307408Y-123519310D01*
G37*
G36*
X181733643Y-121979781D02*
X181879415Y-122040162D01*
X182010611Y-122127824D01*
X182122176Y-122239389D01*
X182209838Y-122370585D01*
X182270219Y-122516357D01*
X182301000Y-122671107D01*
X182301000Y-122828893D01*
X182270219Y-122983643D01*
X182209838Y-123129415D01*
X182122176Y-123260611D01*
X182010611Y-123372176D01*
X181879415Y-123459838D01*
X181733643Y-123520219D01*
X181578893Y-123551000D01*
X181421107Y-123551000D01*
X181266357Y-123520219D01*
X181120585Y-123459838D01*
X180989389Y-123372176D01*
X180877824Y-123260611D01*
X180790162Y-123129415D01*
X180729781Y-122983643D01*
X180699000Y-122828893D01*
X180699000Y-122671107D01*
X180729781Y-122516357D01*
X180790162Y-122370585D01*
X180877824Y-122239389D01*
X180989389Y-122127824D01*
X181120585Y-122040162D01*
X181266357Y-121979781D01*
X181421107Y-121949000D01*
X181578893Y-121949000D01*
X181733643Y-121979781D01*
X181733643Y-121979781D01*
G37*
G36*
X171933643Y-121979781D02*
X172079415Y-122040162D01*
X172210611Y-122127824D01*
X172322176Y-122239389D01*
X172409838Y-122370585D01*
X172470219Y-122516357D01*
X172501000Y-122671107D01*
X172501000Y-122828893D01*
X172470219Y-122983643D01*
X172409838Y-123129415D01*
X172322176Y-123260611D01*
X172210611Y-123372176D01*
X172079415Y-123459838D01*
X171933643Y-123520219D01*
X171778893Y-123551000D01*
X171621107Y-123551000D01*
X171466357Y-123520219D01*
X171320585Y-123459838D01*
X171189389Y-123372176D01*
X171077824Y-123260611D01*
X170990162Y-123129415D01*
X170929781Y-122983643D01*
X170899000Y-122828893D01*
X170899000Y-122671107D01*
X170929781Y-122516357D01*
X170990162Y-122370585D01*
X171077824Y-122239389D01*
X171189389Y-122127824D01*
X171320585Y-122040162D01*
X171466357Y-121979781D01*
X171621107Y-121949000D01*
X171778893Y-121949000D01*
X171933643Y-121979781D01*
X171933643Y-121979781D01*
G37*
G36*
X177733643Y-121979781D02*
X177879415Y-122040162D01*
X178010611Y-122127824D01*
X178122176Y-122239389D01*
X178209838Y-122370585D01*
X178270219Y-122516357D01*
X178301000Y-122671107D01*
X178301000Y-122828893D01*
X178270219Y-122983643D01*
X178209838Y-123129415D01*
X178122176Y-123260611D01*
X178010611Y-123372176D01*
X177879415Y-123459838D01*
X177733643Y-123520219D01*
X177578893Y-123551000D01*
X177421107Y-123551000D01*
X177266357Y-123520219D01*
X177120585Y-123459838D01*
X176989389Y-123372176D01*
X176877824Y-123260611D01*
X176790162Y-123129415D01*
X176729781Y-122983643D01*
X176699000Y-122828893D01*
X176699000Y-122671107D01*
X176729781Y-122516357D01*
X176790162Y-122370585D01*
X176877824Y-122239389D01*
X176989389Y-122127824D01*
X177120585Y-122040162D01*
X177266357Y-121979781D01*
X177421107Y-121949000D01*
X177578893Y-121949000D01*
X177733643Y-121979781D01*
X177733643Y-121979781D01*
G37*
G36*
X177705927Y-117865270D02*
X177705930Y-117865271D01*
X177705931Y-117865271D01*
X177903949Y-117925339D01*
X177903951Y-117925340D01*
X177903954Y-117925341D01*
X178086444Y-118022883D01*
X178246402Y-118154158D01*
X178377677Y-118314115D01*
X178475219Y-118496605D01*
X178535290Y-118694632D01*
X178550490Y-118848959D01*
X178550490Y-120151041D01*
X178535290Y-120305368D01*
X178475219Y-120503395D01*
X178377677Y-120685885D01*
X178246402Y-120845842D01*
X178086445Y-120977117D01*
X177903955Y-121074659D01*
X177903952Y-121074660D01*
X177903950Y-121074661D01*
X177705932Y-121134729D01*
X177705931Y-121134729D01*
X177705928Y-121134730D01*
X177500000Y-121155012D01*
X177294073Y-121134730D01*
X177294070Y-121134729D01*
X177294069Y-121134729D01*
X177096051Y-121074661D01*
X177096049Y-121074660D01*
X177096046Y-121074659D01*
X176913556Y-120977117D01*
X176753599Y-120845842D01*
X176622325Y-120685886D01*
X176524780Y-120503392D01*
X176464710Y-120305368D01*
X176449510Y-120151041D01*
X176449510Y-118848960D01*
X176464710Y-118694633D01*
X176464711Y-118694629D01*
X176524779Y-118496611D01*
X176524780Y-118496609D01*
X176524781Y-118496606D01*
X176622323Y-118314116D01*
X176753598Y-118154158D01*
X176913555Y-118022883D01*
X177096045Y-117925341D01*
X177096048Y-117925340D01*
X177096050Y-117925339D01*
X177294068Y-117865271D01*
X177294069Y-117865271D01*
X177294072Y-117865270D01*
X177500000Y-117844988D01*
X177705927Y-117865270D01*
X177705927Y-117865270D01*
G37*
G36*
X154151000Y-120561000D02*
X152349000Y-120561000D01*
X152349000Y-118759000D01*
X154151000Y-118759000D01*
X154151000Y-120561000D01*
X154151000Y-120561000D01*
G37*
G36*
X153360443Y-116225519D02*
X153426627Y-116232037D01*
X153534955Y-116264898D01*
X153596467Y-116283557D01*
X153681283Y-116328893D01*
X153752991Y-116367222D01*
X153760806Y-116373636D01*
X153890186Y-116479814D01*
X153973448Y-116581271D01*
X154002778Y-116617009D01*
X154002779Y-116617011D01*
X154086443Y-116773533D01*
X154086443Y-116773534D01*
X154137963Y-116943373D01*
X154155359Y-117120000D01*
X154137963Y-117296627D01*
X154103616Y-117409853D01*
X154086443Y-117466467D01*
X154079836Y-117478827D01*
X154002778Y-117622991D01*
X153973448Y-117658729D01*
X153890186Y-117760186D01*
X153788729Y-117843448D01*
X153752991Y-117872778D01*
X153752989Y-117872779D01*
X153596467Y-117956443D01*
X153539853Y-117973616D01*
X153426627Y-118007963D01*
X153360443Y-118014481D01*
X153294260Y-118021000D01*
X153205740Y-118021000D01*
X153139557Y-118014481D01*
X153073373Y-118007963D01*
X152960147Y-117973616D01*
X152903533Y-117956443D01*
X152747011Y-117872779D01*
X152747009Y-117872778D01*
X152711271Y-117843448D01*
X152609814Y-117760186D01*
X152526552Y-117658729D01*
X152497222Y-117622991D01*
X152420164Y-117478827D01*
X152413557Y-117466467D01*
X152396384Y-117409853D01*
X152362037Y-117296627D01*
X152344641Y-117120000D01*
X152362037Y-116943373D01*
X152413557Y-116773534D01*
X152413557Y-116773533D01*
X152497221Y-116617011D01*
X152497222Y-116617009D01*
X152526552Y-116581271D01*
X152609814Y-116479814D01*
X152739194Y-116373636D01*
X152747009Y-116367222D01*
X152818717Y-116328893D01*
X152903533Y-116283557D01*
X152965045Y-116264898D01*
X153073373Y-116232037D01*
X153139557Y-116225519D01*
X153205740Y-116219000D01*
X153294260Y-116219000D01*
X153360443Y-116225519D01*
X153360443Y-116225519D01*
G37*
G36*
X164238677Y-116253465D02*
X164276364Y-116264898D01*
X164311103Y-116283466D01*
X164341548Y-116308452D01*
X164366534Y-116338897D01*
X164385102Y-116373636D01*
X164396535Y-116411323D01*
X164401000Y-116456661D01*
X164401000Y-117543339D01*
X164396535Y-117588677D01*
X164385102Y-117626364D01*
X164366534Y-117661103D01*
X164341548Y-117691548D01*
X164311103Y-117716534D01*
X164276364Y-117735102D01*
X164238677Y-117746535D01*
X164193339Y-117751000D01*
X163356661Y-117751000D01*
X163311323Y-117746535D01*
X163273636Y-117735102D01*
X163238897Y-117716534D01*
X163208452Y-117691548D01*
X163183466Y-117661103D01*
X163164898Y-117626364D01*
X163153465Y-117588677D01*
X163149000Y-117543339D01*
X163149000Y-116456661D01*
X163153465Y-116411323D01*
X163164898Y-116373636D01*
X163183466Y-116338897D01*
X163208452Y-116308452D01*
X163238897Y-116283466D01*
X163273636Y-116264898D01*
X163311323Y-116253465D01*
X163356661Y-116249000D01*
X164193339Y-116249000D01*
X164238677Y-116253465D01*
X164238677Y-116253465D01*
G37*
G36*
X162188677Y-116253465D02*
X162226364Y-116264898D01*
X162261103Y-116283466D01*
X162291548Y-116308452D01*
X162316534Y-116338897D01*
X162335102Y-116373636D01*
X162346535Y-116411323D01*
X162351000Y-116456661D01*
X162351000Y-117543339D01*
X162346535Y-117588677D01*
X162335102Y-117626364D01*
X162316534Y-117661103D01*
X162291548Y-117691548D01*
X162261103Y-117716534D01*
X162226364Y-117735102D01*
X162188677Y-117746535D01*
X162143339Y-117751000D01*
X161306661Y-117751000D01*
X161261323Y-117746535D01*
X161223636Y-117735102D01*
X161188897Y-117716534D01*
X161158452Y-117691548D01*
X161133466Y-117661103D01*
X161114898Y-117626364D01*
X161103465Y-117588677D01*
X161099000Y-117543339D01*
X161099000Y-116456661D01*
X161103465Y-116411323D01*
X161114898Y-116373636D01*
X161133466Y-116338897D01*
X161158452Y-116308452D01*
X161188897Y-116283466D01*
X161223636Y-116264898D01*
X161261323Y-116253465D01*
X161306661Y-116249000D01*
X162143339Y-116249000D01*
X162188677Y-116253465D01*
X162188677Y-116253465D01*
G37*
G36*
X171933643Y-115479781D02*
X172079415Y-115540162D01*
X172210611Y-115627824D01*
X172322176Y-115739389D01*
X172409838Y-115870585D01*
X172470219Y-116016357D01*
X172501000Y-116171107D01*
X172501000Y-116328893D01*
X172470219Y-116483643D01*
X172409838Y-116629415D01*
X172322176Y-116760611D01*
X172210611Y-116872176D01*
X172079415Y-116959838D01*
X171933643Y-117020219D01*
X171778893Y-117051000D01*
X171621107Y-117051000D01*
X171466357Y-117020219D01*
X171320585Y-116959838D01*
X171189389Y-116872176D01*
X171077824Y-116760611D01*
X170990162Y-116629415D01*
X170929781Y-116483643D01*
X170899000Y-116328893D01*
X170899000Y-116171107D01*
X170929781Y-116016357D01*
X170990162Y-115870585D01*
X171077824Y-115739389D01*
X171189389Y-115627824D01*
X171320585Y-115540162D01*
X171466357Y-115479781D01*
X171621107Y-115449000D01*
X171778893Y-115449000D01*
X171933643Y-115479781D01*
X171933643Y-115479781D01*
G37*
G36*
X181733643Y-115479781D02*
X181879415Y-115540162D01*
X182010611Y-115627824D01*
X182122176Y-115739389D01*
X182209838Y-115870585D01*
X182270219Y-116016357D01*
X182301000Y-116171107D01*
X182301000Y-116328893D01*
X182270219Y-116483643D01*
X182209838Y-116629415D01*
X182122176Y-116760611D01*
X182010611Y-116872176D01*
X181879415Y-116959838D01*
X181733643Y-117020219D01*
X181578893Y-117051000D01*
X181421107Y-117051000D01*
X181266357Y-117020219D01*
X181120585Y-116959838D01*
X180989389Y-116872176D01*
X180877824Y-116760611D01*
X180790162Y-116629415D01*
X180729781Y-116483643D01*
X180699000Y-116328893D01*
X180699000Y-116171107D01*
X180729781Y-116016357D01*
X180790162Y-115870585D01*
X180877824Y-115739389D01*
X180989389Y-115627824D01*
X181120585Y-115540162D01*
X181266357Y-115479781D01*
X181421107Y-115449000D01*
X181578893Y-115449000D01*
X181733643Y-115479781D01*
X181733643Y-115479781D01*
G37*
G36*
X177733643Y-115479781D02*
X177879415Y-115540162D01*
X178010611Y-115627824D01*
X178122176Y-115739389D01*
X178209838Y-115870585D01*
X178270219Y-116016357D01*
X178301000Y-116171107D01*
X178301000Y-116328893D01*
X178270219Y-116483643D01*
X178209838Y-116629415D01*
X178122176Y-116760611D01*
X178010611Y-116872176D01*
X177879415Y-116959838D01*
X177733643Y-117020219D01*
X177578893Y-117051000D01*
X177421107Y-117051000D01*
X177266357Y-117020219D01*
X177120585Y-116959838D01*
X176989389Y-116872176D01*
X176877824Y-116760611D01*
X176790162Y-116629415D01*
X176729781Y-116483643D01*
X176699000Y-116328893D01*
X176699000Y-116171107D01*
X176729781Y-116016357D01*
X176790162Y-115870585D01*
X176877824Y-115739389D01*
X176989389Y-115627824D01*
X177120585Y-115540162D01*
X177266357Y-115479781D01*
X177421107Y-115449000D01*
X177578893Y-115449000D01*
X177733643Y-115479781D01*
X177733643Y-115479781D01*
G37*
G36*
X174307408Y-113410110D02*
X174307411Y-113410111D01*
X174307412Y-113410111D01*
X174505430Y-113470179D01*
X174505432Y-113470180D01*
X174505435Y-113470181D01*
X174687925Y-113567723D01*
X174847882Y-113698998D01*
X174979157Y-113858955D01*
X175076699Y-114041445D01*
X175076700Y-114041448D01*
X175076701Y-114041450D01*
X175134969Y-114233534D01*
X175136770Y-114239472D01*
X175157052Y-114445400D01*
X175136770Y-114651328D01*
X175136769Y-114651331D01*
X175136769Y-114651332D01*
X175104829Y-114756625D01*
X175076699Y-114849355D01*
X174979157Y-115031845D01*
X174847882Y-115191802D01*
X174687925Y-115323077D01*
X174505435Y-115420619D01*
X174505432Y-115420620D01*
X174505430Y-115420621D01*
X174307412Y-115480689D01*
X174307411Y-115480689D01*
X174307408Y-115480690D01*
X174153081Y-115495890D01*
X172850999Y-115495890D01*
X172696672Y-115480690D01*
X172696669Y-115480689D01*
X172696668Y-115480689D01*
X172498650Y-115420621D01*
X172498648Y-115420620D01*
X172498645Y-115420619D01*
X172316155Y-115323077D01*
X172156198Y-115191802D01*
X172024923Y-115031845D01*
X171927381Y-114849355D01*
X171899252Y-114756625D01*
X171867311Y-114651332D01*
X171867311Y-114651331D01*
X171867310Y-114651328D01*
X171847028Y-114445400D01*
X171867310Y-114239472D01*
X171869111Y-114233534D01*
X171927379Y-114041450D01*
X171927380Y-114041448D01*
X171927381Y-114041445D01*
X172024923Y-113858955D01*
X172156198Y-113698998D01*
X172316155Y-113567723D01*
X172498645Y-113470181D01*
X172498648Y-113470180D01*
X172498650Y-113470179D01*
X172696668Y-113410111D01*
X172696669Y-113410111D01*
X172696672Y-113410110D01*
X172850999Y-113394910D01*
X174153081Y-113394910D01*
X174307408Y-113410110D01*
X174307408Y-113410110D01*
G37*
G36*
X153360443Y-113685519D02*
X153426627Y-113692037D01*
X153539853Y-113726384D01*
X153596467Y-113743557D01*
X153735087Y-113817652D01*
X153752991Y-113827222D01*
X153788729Y-113856552D01*
X153890186Y-113939814D01*
X153973448Y-114041271D01*
X154002778Y-114077009D01*
X154002779Y-114077011D01*
X154086443Y-114233533D01*
X154103616Y-114290147D01*
X154137963Y-114403373D01*
X154155359Y-114580000D01*
X154137963Y-114756627D01*
X154109836Y-114849350D01*
X154086443Y-114926467D01*
X154030117Y-115031844D01*
X154002778Y-115082991D01*
X153973448Y-115118729D01*
X153890186Y-115220186D01*
X153788729Y-115303448D01*
X153752991Y-115332778D01*
X153752989Y-115332779D01*
X153596467Y-115416443D01*
X153539853Y-115433616D01*
X153426627Y-115467963D01*
X153360443Y-115474481D01*
X153294260Y-115481000D01*
X153205740Y-115481000D01*
X153139557Y-115474481D01*
X153073373Y-115467963D01*
X152960147Y-115433616D01*
X152903533Y-115416443D01*
X152747011Y-115332779D01*
X152747009Y-115332778D01*
X152711271Y-115303448D01*
X152609814Y-115220186D01*
X152526552Y-115118729D01*
X152497222Y-115082991D01*
X152469883Y-115031844D01*
X152413557Y-114926467D01*
X152390164Y-114849350D01*
X152362037Y-114756627D01*
X152344641Y-114580000D01*
X152362037Y-114403373D01*
X152396384Y-114290147D01*
X152413557Y-114233533D01*
X152497221Y-114077011D01*
X152497222Y-114077009D01*
X152526552Y-114041271D01*
X152609814Y-113939814D01*
X152711271Y-113856552D01*
X152747009Y-113827222D01*
X152764913Y-113817652D01*
X152903533Y-113743557D01*
X152960147Y-113726384D01*
X153073373Y-113692037D01*
X153139557Y-113685519D01*
X153205740Y-113679000D01*
X153294260Y-113679000D01*
X153360443Y-113685519D01*
X153360443Y-113685519D01*
G37*
G36*
X153360443Y-111145519D02*
X153426627Y-111152037D01*
X153539853Y-111186384D01*
X153596467Y-111203557D01*
X153689837Y-111253465D01*
X153752991Y-111287222D01*
X153788729Y-111316552D01*
X153890186Y-111399814D01*
X153973448Y-111501271D01*
X154002778Y-111537009D01*
X154002779Y-111537011D01*
X154086443Y-111693533D01*
X154086443Y-111693534D01*
X154137963Y-111863373D01*
X154155359Y-112040000D01*
X154137963Y-112216627D01*
X154103616Y-112329853D01*
X154086443Y-112386467D01*
X154037075Y-112478827D01*
X154002778Y-112542991D01*
X154002492Y-112543339D01*
X153890186Y-112680186D01*
X153788729Y-112763448D01*
X153752991Y-112792778D01*
X153752989Y-112792779D01*
X153596467Y-112876443D01*
X153539853Y-112893616D01*
X153426627Y-112927963D01*
X153360443Y-112934481D01*
X153294260Y-112941000D01*
X153205740Y-112941000D01*
X153139557Y-112934481D01*
X153073373Y-112927963D01*
X152960147Y-112893616D01*
X152903533Y-112876443D01*
X152747011Y-112792779D01*
X152747009Y-112792778D01*
X152711271Y-112763448D01*
X152609814Y-112680186D01*
X152497508Y-112543339D01*
X152497222Y-112542991D01*
X152462925Y-112478827D01*
X152413557Y-112386467D01*
X152396384Y-112329853D01*
X152362037Y-112216627D01*
X152344641Y-112040000D01*
X152362037Y-111863373D01*
X152413557Y-111693534D01*
X152413557Y-111693533D01*
X152497221Y-111537011D01*
X152497222Y-111537009D01*
X152526552Y-111501271D01*
X152609814Y-111399814D01*
X152711271Y-111316552D01*
X152747009Y-111287222D01*
X152810163Y-111253465D01*
X152903533Y-111203557D01*
X152960147Y-111186384D01*
X153073373Y-111152037D01*
X153139557Y-111145519D01*
X153205740Y-111139000D01*
X153294260Y-111139000D01*
X153360443Y-111145519D01*
X153360443Y-111145519D01*
G37*
G36*
X162188677Y-111253465D02*
X162226364Y-111264898D01*
X162261103Y-111283466D01*
X162291548Y-111308452D01*
X162316534Y-111338897D01*
X162335102Y-111373636D01*
X162346535Y-111411323D01*
X162351000Y-111456661D01*
X162351000Y-112543339D01*
X162346535Y-112588677D01*
X162335102Y-112626364D01*
X162316534Y-112661103D01*
X162291548Y-112691548D01*
X162261103Y-112716534D01*
X162226364Y-112735102D01*
X162188677Y-112746535D01*
X162143339Y-112751000D01*
X161306661Y-112751000D01*
X161261323Y-112746535D01*
X161223636Y-112735102D01*
X161188897Y-112716534D01*
X161158452Y-112691548D01*
X161133466Y-112661103D01*
X161114898Y-112626364D01*
X161103465Y-112588677D01*
X161099000Y-112543339D01*
X161099000Y-111456661D01*
X161103465Y-111411323D01*
X161114898Y-111373636D01*
X161133466Y-111338897D01*
X161158452Y-111308452D01*
X161188897Y-111283466D01*
X161223636Y-111264898D01*
X161261323Y-111253465D01*
X161306661Y-111249000D01*
X162143339Y-111249000D01*
X162188677Y-111253465D01*
X162188677Y-111253465D01*
G37*
G36*
X164238677Y-111253465D02*
X164276364Y-111264898D01*
X164311103Y-111283466D01*
X164341548Y-111308452D01*
X164366534Y-111338897D01*
X164385102Y-111373636D01*
X164396535Y-111411323D01*
X164401000Y-111456661D01*
X164401000Y-112543339D01*
X164396535Y-112588677D01*
X164385102Y-112626364D01*
X164366534Y-112661103D01*
X164341548Y-112691548D01*
X164311103Y-112716534D01*
X164276364Y-112735102D01*
X164238677Y-112746535D01*
X164193339Y-112751000D01*
X163356661Y-112751000D01*
X163311323Y-112746535D01*
X163273636Y-112735102D01*
X163238897Y-112716534D01*
X163208452Y-112691548D01*
X163183466Y-112661103D01*
X163164898Y-112626364D01*
X163153465Y-112588677D01*
X163149000Y-112543339D01*
X163149000Y-111456661D01*
X163153465Y-111411323D01*
X163164898Y-111373636D01*
X163183466Y-111338897D01*
X163208452Y-111308452D01*
X163238897Y-111283466D01*
X163273636Y-111264898D01*
X163311323Y-111253465D01*
X163356661Y-111249000D01*
X164193339Y-111249000D01*
X164238677Y-111253465D01*
X164238677Y-111253465D01*
G37*
G36*
X153360442Y-108605518D02*
X153426627Y-108612037D01*
X153539853Y-108646384D01*
X153596467Y-108663557D01*
X153735087Y-108737652D01*
X153752991Y-108747222D01*
X153788729Y-108776552D01*
X153890186Y-108859814D01*
X153953647Y-108937143D01*
X154002778Y-108997009D01*
X154002779Y-108997011D01*
X154086443Y-109153533D01*
X154086443Y-109153534D01*
X154137963Y-109323373D01*
X154155359Y-109500000D01*
X154137963Y-109676627D01*
X154103616Y-109789853D01*
X154086443Y-109846467D01*
X154012348Y-109985087D01*
X154002778Y-110002991D01*
X153973448Y-110038729D01*
X153890186Y-110140186D01*
X153788729Y-110223448D01*
X153752991Y-110252778D01*
X153752989Y-110252779D01*
X153596467Y-110336443D01*
X153539853Y-110353616D01*
X153426627Y-110387963D01*
X153360442Y-110394482D01*
X153294260Y-110401000D01*
X153205740Y-110401000D01*
X153139558Y-110394482D01*
X153073373Y-110387963D01*
X152960147Y-110353616D01*
X152903533Y-110336443D01*
X152747011Y-110252779D01*
X152747009Y-110252778D01*
X152711271Y-110223448D01*
X152609814Y-110140186D01*
X152526552Y-110038729D01*
X152497222Y-110002991D01*
X152487652Y-109985087D01*
X152413557Y-109846467D01*
X152396384Y-109789853D01*
X152362037Y-109676627D01*
X152344641Y-109500000D01*
X152362037Y-109323373D01*
X152413557Y-109153534D01*
X152413557Y-109153533D01*
X152497221Y-108997011D01*
X152497222Y-108997009D01*
X152546353Y-108937143D01*
X152609814Y-108859814D01*
X152711271Y-108776552D01*
X152747009Y-108747222D01*
X152764913Y-108737652D01*
X152903533Y-108663557D01*
X152960147Y-108646384D01*
X153073373Y-108612037D01*
X153139558Y-108605518D01*
X153205740Y-108599000D01*
X153294260Y-108599000D01*
X153360442Y-108605518D01*
X153360442Y-108605518D01*
G37*
G36*
X172887142Y-107918242D02*
X173035102Y-107979530D01*
X173168258Y-108068502D01*
X173281498Y-108181742D01*
X173370470Y-108314898D01*
X173431758Y-108462858D01*
X173463000Y-108619925D01*
X173463000Y-108780075D01*
X173431758Y-108937142D01*
X173370470Y-109085102D01*
X173281498Y-109218258D01*
X173168258Y-109331498D01*
X173035102Y-109420470D01*
X172887142Y-109481758D01*
X172730075Y-109513000D01*
X172569925Y-109513000D01*
X172412858Y-109481758D01*
X172264898Y-109420470D01*
X172131742Y-109331498D01*
X172018502Y-109218258D01*
X171929530Y-109085102D01*
X171868242Y-108937142D01*
X171837000Y-108780075D01*
X171837000Y-108619925D01*
X171868242Y-108462858D01*
X171929530Y-108314898D01*
X172018502Y-108181742D01*
X172131742Y-108068502D01*
X172264898Y-107979530D01*
X172412858Y-107918242D01*
X172569925Y-107887000D01*
X172730075Y-107887000D01*
X172887142Y-107918242D01*
X172887142Y-107918242D01*
G37*
G36*
X180487142Y-107918242D02*
X180635102Y-107979530D01*
X180768258Y-108068502D01*
X180881498Y-108181742D01*
X180970470Y-108314898D01*
X181031758Y-108462858D01*
X181063000Y-108619925D01*
X181063000Y-108780075D01*
X181031758Y-108937142D01*
X180970470Y-109085102D01*
X180881498Y-109218258D01*
X180768258Y-109331498D01*
X180635102Y-109420470D01*
X180487142Y-109481758D01*
X180330075Y-109513000D01*
X180169925Y-109513000D01*
X180012858Y-109481758D01*
X179864898Y-109420470D01*
X179731742Y-109331498D01*
X179618502Y-109218258D01*
X179529530Y-109085102D01*
X179468242Y-108937142D01*
X179437000Y-108780075D01*
X179437000Y-108619925D01*
X179468242Y-108462858D01*
X179529530Y-108314898D01*
X179618502Y-108181742D01*
X179731742Y-108068502D01*
X179864898Y-107979530D01*
X180012858Y-107918242D01*
X180169925Y-107887000D01*
X180330075Y-107887000D01*
X180487142Y-107918242D01*
X180487142Y-107918242D01*
G37*
G36*
X176687142Y-107918242D02*
X176835102Y-107979530D01*
X176968258Y-108068502D01*
X177081498Y-108181742D01*
X177170470Y-108314898D01*
X177231758Y-108462858D01*
X177263000Y-108619925D01*
X177263000Y-108780075D01*
X177231758Y-108937142D01*
X177170470Y-109085102D01*
X177081498Y-109218258D01*
X176968258Y-109331498D01*
X176835102Y-109420470D01*
X176687142Y-109481758D01*
X176530075Y-109513000D01*
X176369925Y-109513000D01*
X176212858Y-109481758D01*
X176064898Y-109420470D01*
X175931742Y-109331498D01*
X175818502Y-109218258D01*
X175729530Y-109085102D01*
X175668242Y-108937142D01*
X175637000Y-108780075D01*
X175637000Y-108619925D01*
X175668242Y-108462858D01*
X175729530Y-108314898D01*
X175818502Y-108181742D01*
X175931742Y-108068502D01*
X176064898Y-107979530D01*
X176212858Y-107918242D01*
X176369925Y-107887000D01*
X176530075Y-107887000D01*
X176687142Y-107918242D01*
X176687142Y-107918242D01*
G37*
G36*
X153360443Y-106065519D02*
X153426627Y-106072037D01*
X153539853Y-106106384D01*
X153596467Y-106123557D01*
X153735087Y-106197652D01*
X153752991Y-106207222D01*
X153788729Y-106236552D01*
X153890186Y-106319814D01*
X153973448Y-106421271D01*
X154002778Y-106457009D01*
X154002779Y-106457011D01*
X154086443Y-106613533D01*
X154086443Y-106613534D01*
X154137963Y-106783373D01*
X154155359Y-106960000D01*
X154137963Y-107136627D01*
X154103616Y-107249853D01*
X154086443Y-107306467D01*
X154012348Y-107445087D01*
X154002778Y-107462991D01*
X153973448Y-107498729D01*
X153890186Y-107600186D01*
X153788729Y-107683448D01*
X153752991Y-107712778D01*
X153752989Y-107712779D01*
X153596467Y-107796443D01*
X153539853Y-107813616D01*
X153426627Y-107847963D01*
X153360443Y-107854481D01*
X153294260Y-107861000D01*
X153205740Y-107861000D01*
X153139557Y-107854481D01*
X153073373Y-107847963D01*
X152960147Y-107813616D01*
X152903533Y-107796443D01*
X152747011Y-107712779D01*
X152747009Y-107712778D01*
X152711271Y-107683448D01*
X152609814Y-107600186D01*
X152526552Y-107498729D01*
X152497222Y-107462991D01*
X152487652Y-107445087D01*
X152413557Y-107306467D01*
X152396384Y-107249853D01*
X152362037Y-107136627D01*
X152344641Y-106960000D01*
X152362037Y-106783373D01*
X152413557Y-106613534D01*
X152413557Y-106613533D01*
X152497221Y-106457011D01*
X152497222Y-106457009D01*
X152526552Y-106421271D01*
X152609814Y-106319814D01*
X152711271Y-106236552D01*
X152747009Y-106207222D01*
X152764913Y-106197652D01*
X152903533Y-106123557D01*
X152960147Y-106106384D01*
X153073373Y-106072037D01*
X153139557Y-106065519D01*
X153205740Y-106059000D01*
X153294260Y-106059000D01*
X153360443Y-106065519D01*
X153360443Y-106065519D01*
G37*
G36*
X172887142Y-98518242D02*
X173035102Y-98579530D01*
X173168258Y-98668502D01*
X173281498Y-98781742D01*
X173370470Y-98914898D01*
X173431758Y-99062858D01*
X173463000Y-99219925D01*
X173463000Y-99380075D01*
X173431758Y-99537142D01*
X173370470Y-99685102D01*
X173281498Y-99818258D01*
X173168258Y-99931498D01*
X173035102Y-100020470D01*
X172887142Y-100081758D01*
X172730075Y-100113000D01*
X172569925Y-100113000D01*
X172412858Y-100081758D01*
X172264898Y-100020470D01*
X172131742Y-99931498D01*
X172018502Y-99818258D01*
X171929530Y-99685102D01*
X171868242Y-99537142D01*
X171837000Y-99380075D01*
X171837000Y-99219925D01*
X171868242Y-99062858D01*
X171929530Y-98914898D01*
X172018502Y-98781742D01*
X172131742Y-98668502D01*
X172264898Y-98579530D01*
X172412858Y-98518242D01*
X172569925Y-98487000D01*
X172730075Y-98487000D01*
X172887142Y-98518242D01*
X172887142Y-98518242D01*
G37*
G36*
X176687142Y-98518242D02*
X176835102Y-98579530D01*
X176968258Y-98668502D01*
X177081498Y-98781742D01*
X177170470Y-98914898D01*
X177231758Y-99062858D01*
X177263000Y-99219925D01*
X177263000Y-99380075D01*
X177231758Y-99537142D01*
X177170470Y-99685102D01*
X177081498Y-99818258D01*
X176968258Y-99931498D01*
X176835102Y-100020470D01*
X176687142Y-100081758D01*
X176530075Y-100113000D01*
X176369925Y-100113000D01*
X176212858Y-100081758D01*
X176064898Y-100020470D01*
X175931742Y-99931498D01*
X175818502Y-99818258D01*
X175729530Y-99685102D01*
X175668242Y-99537142D01*
X175637000Y-99380075D01*
X175637000Y-99219925D01*
X175668242Y-99062858D01*
X175729530Y-98914898D01*
X175818502Y-98781742D01*
X175931742Y-98668502D01*
X176064898Y-98579530D01*
X176212858Y-98518242D01*
X176369925Y-98487000D01*
X176530075Y-98487000D01*
X176687142Y-98518242D01*
X176687142Y-98518242D01*
G37*
G36*
X180487142Y-98518242D02*
X180635102Y-98579530D01*
X180768258Y-98668502D01*
X180881498Y-98781742D01*
X180970470Y-98914898D01*
X181031758Y-99062858D01*
X181063000Y-99219925D01*
X181063000Y-99380075D01*
X181031758Y-99537142D01*
X180970470Y-99685102D01*
X180881498Y-99818258D01*
X180768258Y-99931498D01*
X180635102Y-100020470D01*
X180487142Y-100081758D01*
X180330075Y-100113000D01*
X180169925Y-100113000D01*
X180012858Y-100081758D01*
X179864898Y-100020470D01*
X179731742Y-99931498D01*
X179618502Y-99818258D01*
X179529530Y-99685102D01*
X179468242Y-99537142D01*
X179437000Y-99380075D01*
X179437000Y-99219925D01*
X179468242Y-99062858D01*
X179529530Y-98914898D01*
X179618502Y-98781742D01*
X179731742Y-98668502D01*
X179864898Y-98579530D01*
X180012858Y-98518242D01*
X180169925Y-98487000D01*
X180330075Y-98487000D01*
X180487142Y-98518242D01*
X180487142Y-98518242D01*
G37*
G36*
X180487142Y-92918242D02*
X180635102Y-92979530D01*
X180768258Y-93068502D01*
X180881498Y-93181742D01*
X180970470Y-93314898D01*
X181031758Y-93462858D01*
X181063000Y-93619925D01*
X181063000Y-93780075D01*
X181031758Y-93937142D01*
X180970470Y-94085102D01*
X180881498Y-94218258D01*
X180768258Y-94331498D01*
X180635102Y-94420470D01*
X180487142Y-94481758D01*
X180330075Y-94513000D01*
X180169925Y-94513000D01*
X180012858Y-94481758D01*
X179864898Y-94420470D01*
X179731742Y-94331498D01*
X179618502Y-94218258D01*
X179529530Y-94085102D01*
X179468242Y-93937142D01*
X179437000Y-93780075D01*
X179437000Y-93619925D01*
X179468242Y-93462858D01*
X179529530Y-93314898D01*
X179618502Y-93181742D01*
X179731742Y-93068502D01*
X179864898Y-92979530D01*
X180012858Y-92918242D01*
X180169925Y-92887000D01*
X180330075Y-92887000D01*
X180487142Y-92918242D01*
X180487142Y-92918242D01*
G37*
G36*
X176687142Y-92918242D02*
X176835102Y-92979530D01*
X176968258Y-93068502D01*
X177081498Y-93181742D01*
X177170470Y-93314898D01*
X177231758Y-93462858D01*
X177263000Y-93619925D01*
X177263000Y-93780075D01*
X177231758Y-93937142D01*
X177170470Y-94085102D01*
X177081498Y-94218258D01*
X176968258Y-94331498D01*
X176835102Y-94420470D01*
X176687142Y-94481758D01*
X176530075Y-94513000D01*
X176369925Y-94513000D01*
X176212858Y-94481758D01*
X176064898Y-94420470D01*
X175931742Y-94331498D01*
X175818502Y-94218258D01*
X175729530Y-94085102D01*
X175668242Y-93937142D01*
X175637000Y-93780075D01*
X175637000Y-93619925D01*
X175668242Y-93462858D01*
X175729530Y-93314898D01*
X175818502Y-93181742D01*
X175931742Y-93068502D01*
X176064898Y-92979530D01*
X176212858Y-92918242D01*
X176369925Y-92887000D01*
X176530075Y-92887000D01*
X176687142Y-92918242D01*
X176687142Y-92918242D01*
G37*
G36*
X172887142Y-92918242D02*
X173035102Y-92979530D01*
X173168258Y-93068502D01*
X173281498Y-93181742D01*
X173370470Y-93314898D01*
X173431758Y-93462858D01*
X173463000Y-93619925D01*
X173463000Y-93780075D01*
X173431758Y-93937142D01*
X173370470Y-94085102D01*
X173281498Y-94218258D01*
X173168258Y-94331498D01*
X173035102Y-94420470D01*
X172887142Y-94481758D01*
X172730075Y-94513000D01*
X172569925Y-94513000D01*
X172412858Y-94481758D01*
X172264898Y-94420470D01*
X172131742Y-94331498D01*
X172018502Y-94218258D01*
X171929530Y-94085102D01*
X171868242Y-93937142D01*
X171837000Y-93780075D01*
X171837000Y-93619925D01*
X171868242Y-93462858D01*
X171929530Y-93314898D01*
X172018502Y-93181742D01*
X172131742Y-93068502D01*
X172264898Y-92979530D01*
X172412858Y-92918242D01*
X172569925Y-92887000D01*
X172730075Y-92887000D01*
X172887142Y-92918242D01*
X172887142Y-92918242D01*
G37*
G36*
X154151000Y-92401000D02*
X152349000Y-92401000D01*
X152349000Y-90599000D01*
X154151000Y-90599000D01*
X154151000Y-92401000D01*
X154151000Y-92401000D01*
G37*
G36*
X153360442Y-88065518D02*
X153426627Y-88072037D01*
X153539853Y-88106384D01*
X153596467Y-88123557D01*
X153735087Y-88197652D01*
X153752991Y-88207222D01*
X153766215Y-88218075D01*
X153890186Y-88319814D01*
X153973448Y-88421271D01*
X154002778Y-88457009D01*
X154002779Y-88457011D01*
X154086443Y-88613533D01*
X154086443Y-88613534D01*
X154137963Y-88783373D01*
X154155359Y-88960000D01*
X154137963Y-89136627D01*
X154109994Y-89228827D01*
X154086443Y-89306467D01*
X154047118Y-89380038D01*
X154002778Y-89462991D01*
X153984632Y-89485102D01*
X153890186Y-89600186D01*
X153788729Y-89683448D01*
X153752991Y-89712778D01*
X153752989Y-89712779D01*
X153596467Y-89796443D01*
X153539853Y-89813616D01*
X153426627Y-89847963D01*
X153360443Y-89854481D01*
X153294260Y-89861000D01*
X153205740Y-89861000D01*
X153139557Y-89854481D01*
X153073373Y-89847963D01*
X152960147Y-89813616D01*
X152903533Y-89796443D01*
X152747011Y-89712779D01*
X152747009Y-89712778D01*
X152711271Y-89683448D01*
X152609814Y-89600186D01*
X152515368Y-89485102D01*
X152497222Y-89462991D01*
X152452882Y-89380038D01*
X152413557Y-89306467D01*
X152390006Y-89228827D01*
X152362037Y-89136627D01*
X152344641Y-88960000D01*
X152362037Y-88783373D01*
X152413557Y-88613534D01*
X152413557Y-88613533D01*
X152497221Y-88457011D01*
X152497222Y-88457009D01*
X152526552Y-88421271D01*
X152609814Y-88319814D01*
X152733785Y-88218075D01*
X152747009Y-88207222D01*
X152764913Y-88197652D01*
X152903533Y-88123557D01*
X152960147Y-88106384D01*
X153073373Y-88072037D01*
X153139558Y-88065518D01*
X153205740Y-88059000D01*
X153294260Y-88059000D01*
X153360442Y-88065518D01*
X153360442Y-88065518D01*
G37*
G36*
X164163677Y-88003465D02*
X164201364Y-88014898D01*
X164236103Y-88033466D01*
X164266548Y-88058452D01*
X164291534Y-88088897D01*
X164310102Y-88123636D01*
X164321535Y-88161323D01*
X164326000Y-88206661D01*
X164326000Y-89293339D01*
X164321535Y-89338677D01*
X164310102Y-89376364D01*
X164291534Y-89411103D01*
X164266548Y-89441548D01*
X164236103Y-89466534D01*
X164201364Y-89485102D01*
X164163677Y-89496535D01*
X164118339Y-89501000D01*
X163281661Y-89501000D01*
X163236323Y-89496535D01*
X163198636Y-89485102D01*
X163163897Y-89466534D01*
X163133452Y-89441548D01*
X163108466Y-89411103D01*
X163089898Y-89376364D01*
X163078465Y-89338677D01*
X163074000Y-89293339D01*
X163074000Y-88206661D01*
X163078465Y-88161323D01*
X163089898Y-88123636D01*
X163108466Y-88088897D01*
X163133452Y-88058452D01*
X163163897Y-88033466D01*
X163198636Y-88014898D01*
X163236323Y-88003465D01*
X163281661Y-87999000D01*
X164118339Y-87999000D01*
X164163677Y-88003465D01*
X164163677Y-88003465D01*
G37*
G36*
X166213677Y-88003465D02*
X166251364Y-88014898D01*
X166286103Y-88033466D01*
X166316548Y-88058452D01*
X166341534Y-88088897D01*
X166360102Y-88123636D01*
X166371535Y-88161323D01*
X166376000Y-88206661D01*
X166376000Y-89293339D01*
X166371535Y-89338677D01*
X166360102Y-89376364D01*
X166341534Y-89411103D01*
X166316548Y-89441548D01*
X166286103Y-89466534D01*
X166251364Y-89485102D01*
X166213677Y-89496535D01*
X166168339Y-89501000D01*
X165331661Y-89501000D01*
X165286323Y-89496535D01*
X165248636Y-89485102D01*
X165213897Y-89466534D01*
X165183452Y-89441548D01*
X165158466Y-89411103D01*
X165139898Y-89376364D01*
X165128465Y-89338677D01*
X165124000Y-89293339D01*
X165124000Y-88206661D01*
X165128465Y-88161323D01*
X165139898Y-88123636D01*
X165158466Y-88088897D01*
X165183452Y-88058452D01*
X165213897Y-88033466D01*
X165248636Y-88014898D01*
X165286323Y-88003465D01*
X165331661Y-87999000D01*
X166168339Y-87999000D01*
X166213677Y-88003465D01*
X166213677Y-88003465D01*
G37*
G36*
X153360443Y-85525519D02*
X153426627Y-85532037D01*
X153539853Y-85566384D01*
X153596467Y-85583557D01*
X153735087Y-85657652D01*
X153752991Y-85667222D01*
X153788729Y-85696552D01*
X153890186Y-85779814D01*
X153973448Y-85881271D01*
X154002778Y-85917009D01*
X154002779Y-85917011D01*
X154086443Y-86073533D01*
X154091037Y-86088677D01*
X154137963Y-86243373D01*
X154155359Y-86420000D01*
X154137963Y-86596627D01*
X154103616Y-86709853D01*
X154086443Y-86766467D01*
X154012348Y-86905087D01*
X154002778Y-86922991D01*
X153973448Y-86958729D01*
X153890186Y-87060186D01*
X153788729Y-87143448D01*
X153752991Y-87172778D01*
X153752989Y-87172779D01*
X153596467Y-87256443D01*
X153539853Y-87273616D01*
X153426627Y-87307963D01*
X153360443Y-87314481D01*
X153294260Y-87321000D01*
X153205740Y-87321000D01*
X153139557Y-87314481D01*
X153073373Y-87307963D01*
X152960147Y-87273616D01*
X152903533Y-87256443D01*
X152747011Y-87172779D01*
X152747009Y-87172778D01*
X152711271Y-87143448D01*
X152609814Y-87060186D01*
X152526552Y-86958729D01*
X152497222Y-86922991D01*
X152487652Y-86905087D01*
X152413557Y-86766467D01*
X152396384Y-86709853D01*
X152362037Y-86596627D01*
X152344641Y-86420000D01*
X152362037Y-86243373D01*
X152408963Y-86088677D01*
X152413557Y-86073533D01*
X152497221Y-85917011D01*
X152497222Y-85917009D01*
X152526552Y-85881271D01*
X152609814Y-85779814D01*
X152711271Y-85696552D01*
X152747009Y-85667222D01*
X152764913Y-85657652D01*
X152903533Y-85583557D01*
X152960147Y-85566384D01*
X153073373Y-85532037D01*
X153139557Y-85525519D01*
X153205740Y-85519000D01*
X153294260Y-85519000D01*
X153360443Y-85525519D01*
X153360443Y-85525519D01*
G37*
G36*
X166213677Y-84753465D02*
X166251364Y-84764898D01*
X166286103Y-84783466D01*
X166316548Y-84808452D01*
X166341534Y-84838897D01*
X166360102Y-84873636D01*
X166371535Y-84911323D01*
X166376000Y-84956661D01*
X166376000Y-86043339D01*
X166371535Y-86088677D01*
X166360102Y-86126364D01*
X166341534Y-86161103D01*
X166316548Y-86191548D01*
X166286103Y-86216534D01*
X166251364Y-86235102D01*
X166213677Y-86246535D01*
X166168339Y-86251000D01*
X165331661Y-86251000D01*
X165286323Y-86246535D01*
X165248636Y-86235102D01*
X165213897Y-86216534D01*
X165183452Y-86191548D01*
X165158466Y-86161103D01*
X165139898Y-86126364D01*
X165128465Y-86088677D01*
X165124000Y-86043339D01*
X165124000Y-84956661D01*
X165128465Y-84911323D01*
X165139898Y-84873636D01*
X165158466Y-84838897D01*
X165183452Y-84808452D01*
X165213897Y-84783466D01*
X165248636Y-84764898D01*
X165286323Y-84753465D01*
X165331661Y-84749000D01*
X166168339Y-84749000D01*
X166213677Y-84753465D01*
X166213677Y-84753465D01*
G37*
G36*
X164163677Y-84753465D02*
X164201364Y-84764898D01*
X164236103Y-84783466D01*
X164266548Y-84808452D01*
X164291534Y-84838897D01*
X164310102Y-84873636D01*
X164321535Y-84911323D01*
X164326000Y-84956661D01*
X164326000Y-86043339D01*
X164321535Y-86088677D01*
X164310102Y-86126364D01*
X164291534Y-86161103D01*
X164266548Y-86191548D01*
X164236103Y-86216534D01*
X164201364Y-86235102D01*
X164163677Y-86246535D01*
X164118339Y-86251000D01*
X163281661Y-86251000D01*
X163236323Y-86246535D01*
X163198636Y-86235102D01*
X163163897Y-86216534D01*
X163133452Y-86191548D01*
X163108466Y-86161103D01*
X163089898Y-86126364D01*
X163078465Y-86088677D01*
X163074000Y-86043339D01*
X163074000Y-84956661D01*
X163078465Y-84911323D01*
X163089898Y-84873636D01*
X163108466Y-84838897D01*
X163133452Y-84808452D01*
X163163897Y-84783466D01*
X163198636Y-84764898D01*
X163236323Y-84753465D01*
X163281661Y-84749000D01*
X164118339Y-84749000D01*
X164163677Y-84753465D01*
X164163677Y-84753465D01*
G37*
G36*
X180487142Y-83518242D02*
X180635102Y-83579530D01*
X180768258Y-83668502D01*
X180881498Y-83781742D01*
X180970470Y-83914898D01*
X181031758Y-84062858D01*
X181063000Y-84219925D01*
X181063000Y-84380075D01*
X181031758Y-84537142D01*
X180970470Y-84685102D01*
X180881498Y-84818258D01*
X180768258Y-84931498D01*
X180635102Y-85020470D01*
X180487142Y-85081758D01*
X180330075Y-85113000D01*
X180169925Y-85113000D01*
X180012858Y-85081758D01*
X179864898Y-85020470D01*
X179731742Y-84931498D01*
X179618502Y-84818258D01*
X179529530Y-84685102D01*
X179468242Y-84537142D01*
X179437000Y-84380075D01*
X179437000Y-84219925D01*
X179468242Y-84062858D01*
X179529530Y-83914898D01*
X179618502Y-83781742D01*
X179731742Y-83668502D01*
X179864898Y-83579530D01*
X180012858Y-83518242D01*
X180169925Y-83487000D01*
X180330075Y-83487000D01*
X180487142Y-83518242D01*
X180487142Y-83518242D01*
G37*
G36*
X172887142Y-83518242D02*
X173035102Y-83579530D01*
X173168258Y-83668502D01*
X173281498Y-83781742D01*
X173370470Y-83914898D01*
X173431758Y-84062858D01*
X173463000Y-84219925D01*
X173463000Y-84380075D01*
X173431758Y-84537142D01*
X173370470Y-84685102D01*
X173281498Y-84818258D01*
X173168258Y-84931498D01*
X173035102Y-85020470D01*
X172887142Y-85081758D01*
X172730075Y-85113000D01*
X172569925Y-85113000D01*
X172412858Y-85081758D01*
X172264898Y-85020470D01*
X172131742Y-84931498D01*
X172018502Y-84818258D01*
X171929530Y-84685102D01*
X171868242Y-84537142D01*
X171837000Y-84380075D01*
X171837000Y-84219925D01*
X171868242Y-84062858D01*
X171929530Y-83914898D01*
X172018502Y-83781742D01*
X172131742Y-83668502D01*
X172264898Y-83579530D01*
X172412858Y-83518242D01*
X172569925Y-83487000D01*
X172730075Y-83487000D01*
X172887142Y-83518242D01*
X172887142Y-83518242D01*
G37*
G36*
X176687142Y-83518242D02*
X176835102Y-83579530D01*
X176968258Y-83668502D01*
X177081498Y-83781742D01*
X177170470Y-83914898D01*
X177231758Y-84062858D01*
X177263000Y-84219925D01*
X177263000Y-84380075D01*
X177231758Y-84537142D01*
X177170470Y-84685102D01*
X177081498Y-84818258D01*
X176968258Y-84931498D01*
X176835102Y-85020470D01*
X176687142Y-85081758D01*
X176530075Y-85113000D01*
X176369925Y-85113000D01*
X176212858Y-85081758D01*
X176064898Y-85020470D01*
X175931742Y-84931498D01*
X175818502Y-84818258D01*
X175729530Y-84685102D01*
X175668242Y-84537142D01*
X175637000Y-84380075D01*
X175637000Y-84219925D01*
X175668242Y-84062858D01*
X175729530Y-83914898D01*
X175818502Y-83781742D01*
X175931742Y-83668502D01*
X176064898Y-83579530D01*
X176212858Y-83518242D01*
X176369925Y-83487000D01*
X176530075Y-83487000D01*
X176687142Y-83518242D01*
X176687142Y-83518242D01*
G37*
M02*
