M48
INCH,TZ
T1C0.0300
T2C0.0392
T3C0.0394
T4C0.0591
%
G90
G05
T1
X6.7972Y-3.3189
X6.7972Y-3.689
X6.9469Y-3.3189
X6.9469Y-3.689
X7.0965Y-3.3189
X7.0965Y-3.689
X6.7972Y-3.9094
X6.7972Y-4.2795
X6.9469Y-3.9094
X6.9469Y-4.2795
X7.0965Y-3.9094
X7.0965Y-4.2795
T3
X6.0335Y-4.211
X6.0335Y-4.311
X6.0335Y-4.411
X6.0335Y-4.511
X6.0335Y-4.611
X6.0335Y-4.711
X6.0335Y-3.4024
X6.0335Y-3.5024
X6.0335Y-3.6024
T4
X6.7598Y-4.5768
X6.7598Y-4.8327
X6.9882Y-4.5768
X6.9882Y-4.8327
X7.1457Y-4.5768
X7.1457Y-4.8327
T2
X6.8071Y-4.5057G85X6.8544Y-4.5057
G05
X6.8071Y-4.9037G85X6.8544Y-4.9037
G05
X6.9882Y-4.7284G85X6.9882Y-4.6811
G05
T0
M30
