G04 #@! TF.GenerationSoftware,KiCad,Pcbnew,(5.0.1)-4*
G04 #@! TF.CreationDate,2019-02-11T23:05:39+00:00*
G04 #@! TF.ProjectId,FT-8900-Headset,46542D383930302D486561647365742E,rev?*
G04 #@! TF.SameCoordinates,Original*
G04 #@! TF.FileFunction,Copper,L1,Top,Signal*
G04 #@! TF.FilePolarity,Positive*
%FSLAX46Y46*%
G04 Gerber Fmt 4.6, Leading zero omitted, Abs format (unit mm)*
G04 Created by KiCad (PCBNEW (5.0.1)-4) date 11/02/2019 23:05:39*
%MOMM*%
%LPD*%
G01*
G04 APERTURE LIST*
G04 #@! TA.AperFunction,ComponentPad*
%ADD10O,3.197860X1.998980*%
G04 #@! TD*
G04 #@! TA.AperFunction,ComponentPad*
%ADD11O,1.998980X3.197860*%
G04 #@! TD*
G04 #@! TA.AperFunction,Conductor*
%ADD12C,0.100000*%
G04 #@! TD*
G04 #@! TA.AperFunction,SMDPad,CuDef*
%ADD13C,1.150000*%
G04 #@! TD*
G04 #@! TA.AperFunction,ComponentPad*
%ADD14R,1.700000X1.700000*%
G04 #@! TD*
G04 #@! TA.AperFunction,ComponentPad*
%ADD15O,1.700000X1.700000*%
G04 #@! TD*
G04 #@! TA.AperFunction,ComponentPad*
%ADD16C,1.524000*%
G04 #@! TD*
G04 #@! TA.AperFunction,Conductor*
%ADD17C,1.000000*%
G04 #@! TD*
G04 APERTURE END LIST*
D10*
G04 #@! TO.P,J5,2*
G04 #@! TO.N,GND*
X173502040Y-124554600D03*
D11*
G04 #@! TO.P,J5,1*
G04 #@! TO.N,Net-(J2-Pad1)*
X177500000Y-119500000D03*
D10*
G04 #@! TO.P,J5,2*
G04 #@! TO.N,GND*
X173502040Y-114445400D03*
G04 #@! TD*
D12*
G04 #@! TO.N,Net-(C1-Pad1)*
G04 #@! TO.C,C1*
G36*
X164124505Y-116301204D02*
X164148773Y-116304804D01*
X164172572Y-116310765D01*
X164195671Y-116319030D01*
X164217850Y-116329520D01*
X164238893Y-116342132D01*
X164258599Y-116356747D01*
X164276777Y-116373223D01*
X164293253Y-116391401D01*
X164307868Y-116411107D01*
X164320480Y-116432150D01*
X164330970Y-116454329D01*
X164339235Y-116477428D01*
X164345196Y-116501227D01*
X164348796Y-116525495D01*
X164350000Y-116549999D01*
X164350000Y-117450001D01*
X164348796Y-117474505D01*
X164345196Y-117498773D01*
X164339235Y-117522572D01*
X164330970Y-117545671D01*
X164320480Y-117567850D01*
X164307868Y-117588893D01*
X164293253Y-117608599D01*
X164276777Y-117626777D01*
X164258599Y-117643253D01*
X164238893Y-117657868D01*
X164217850Y-117670480D01*
X164195671Y-117680970D01*
X164172572Y-117689235D01*
X164148773Y-117695196D01*
X164124505Y-117698796D01*
X164100001Y-117700000D01*
X163449999Y-117700000D01*
X163425495Y-117698796D01*
X163401227Y-117695196D01*
X163377428Y-117689235D01*
X163354329Y-117680970D01*
X163332150Y-117670480D01*
X163311107Y-117657868D01*
X163291401Y-117643253D01*
X163273223Y-117626777D01*
X163256747Y-117608599D01*
X163242132Y-117588893D01*
X163229520Y-117567850D01*
X163219030Y-117545671D01*
X163210765Y-117522572D01*
X163204804Y-117498773D01*
X163201204Y-117474505D01*
X163200000Y-117450001D01*
X163200000Y-116549999D01*
X163201204Y-116525495D01*
X163204804Y-116501227D01*
X163210765Y-116477428D01*
X163219030Y-116454329D01*
X163229520Y-116432150D01*
X163242132Y-116411107D01*
X163256747Y-116391401D01*
X163273223Y-116373223D01*
X163291401Y-116356747D01*
X163311107Y-116342132D01*
X163332150Y-116329520D01*
X163354329Y-116319030D01*
X163377428Y-116310765D01*
X163401227Y-116304804D01*
X163425495Y-116301204D01*
X163449999Y-116300000D01*
X164100001Y-116300000D01*
X164124505Y-116301204D01*
X164124505Y-116301204D01*
G37*
D13*
G04 #@! TD*
G04 #@! TO.P,C1,1*
G04 #@! TO.N,Net-(C1-Pad1)*
X163775000Y-117000000D03*
D12*
G04 #@! TO.N,Net-(C1-Pad2)*
G04 #@! TO.C,C1*
G36*
X162074505Y-116301204D02*
X162098773Y-116304804D01*
X162122572Y-116310765D01*
X162145671Y-116319030D01*
X162167850Y-116329520D01*
X162188893Y-116342132D01*
X162208599Y-116356747D01*
X162226777Y-116373223D01*
X162243253Y-116391401D01*
X162257868Y-116411107D01*
X162270480Y-116432150D01*
X162280970Y-116454329D01*
X162289235Y-116477428D01*
X162295196Y-116501227D01*
X162298796Y-116525495D01*
X162300000Y-116549999D01*
X162300000Y-117450001D01*
X162298796Y-117474505D01*
X162295196Y-117498773D01*
X162289235Y-117522572D01*
X162280970Y-117545671D01*
X162270480Y-117567850D01*
X162257868Y-117588893D01*
X162243253Y-117608599D01*
X162226777Y-117626777D01*
X162208599Y-117643253D01*
X162188893Y-117657868D01*
X162167850Y-117670480D01*
X162145671Y-117680970D01*
X162122572Y-117689235D01*
X162098773Y-117695196D01*
X162074505Y-117698796D01*
X162050001Y-117700000D01*
X161399999Y-117700000D01*
X161375495Y-117698796D01*
X161351227Y-117695196D01*
X161327428Y-117689235D01*
X161304329Y-117680970D01*
X161282150Y-117670480D01*
X161261107Y-117657868D01*
X161241401Y-117643253D01*
X161223223Y-117626777D01*
X161206747Y-117608599D01*
X161192132Y-117588893D01*
X161179520Y-117567850D01*
X161169030Y-117545671D01*
X161160765Y-117522572D01*
X161154804Y-117498773D01*
X161151204Y-117474505D01*
X161150000Y-117450001D01*
X161150000Y-116549999D01*
X161151204Y-116525495D01*
X161154804Y-116501227D01*
X161160765Y-116477428D01*
X161169030Y-116454329D01*
X161179520Y-116432150D01*
X161192132Y-116411107D01*
X161206747Y-116391401D01*
X161223223Y-116373223D01*
X161241401Y-116356747D01*
X161261107Y-116342132D01*
X161282150Y-116329520D01*
X161304329Y-116319030D01*
X161327428Y-116310765D01*
X161351227Y-116304804D01*
X161375495Y-116301204D01*
X161399999Y-116300000D01*
X162050001Y-116300000D01*
X162074505Y-116301204D01*
X162074505Y-116301204D01*
G37*
D13*
G04 #@! TD*
G04 #@! TO.P,C1,2*
G04 #@! TO.N,Net-(C1-Pad2)*
X161725000Y-117000000D03*
D14*
G04 #@! TO.P,J1,1*
G04 #@! TO.N,Net-(J1-Pad1)*
X153250000Y-91500000D03*
D15*
G04 #@! TO.P,J1,2*
X153250000Y-88960000D03*
G04 #@! TO.P,J1,3*
G04 #@! TO.N,Net-(J1-Pad3)*
X153250000Y-86420000D03*
G04 #@! TD*
D14*
G04 #@! TO.P,J2,1*
G04 #@! TO.N,Net-(J2-Pad1)*
X153250000Y-119660000D03*
D15*
G04 #@! TO.P,J2,2*
G04 #@! TO.N,Net-(C1-Pad2)*
X153250000Y-117120000D03*
G04 #@! TO.P,J2,3*
G04 #@! TO.N,GND*
X153250000Y-114580000D03*
G04 #@! TO.P,J2,4*
G04 #@! TO.N,Net-(J2-Pad4)*
X153250000Y-112040000D03*
G04 #@! TO.P,J2,5*
G04 #@! TO.N,N/C*
X153250000Y-109500000D03*
G04 #@! TO.P,J2,6*
X153250000Y-106960000D03*
G04 #@! TD*
D16*
G04 #@! TO.P,J3,T*
G04 #@! TO.N,Net-(J3-PadT)*
X172650000Y-84300000D03*
G04 #@! TO.P,J3,R*
G04 #@! TO.N,Net-(J3-PadR)*
X176450000Y-84300000D03*
G04 #@! TO.P,J3,S*
G04 #@! TO.N,Net-(J1-Pad1)*
X180250000Y-84300000D03*
G04 #@! TO.P,J3,TN*
G04 #@! TO.N,Net-(J3-PadT)*
X172650000Y-93700000D03*
G04 #@! TO.P,J3,RN*
G04 #@! TO.N,Net-(J3-PadR)*
X176450000Y-93700000D03*
G04 #@! TO.P,J3,SN*
G04 #@! TO.N,Net-(J1-Pad1)*
X180250000Y-93700000D03*
G04 #@! TD*
G04 #@! TO.P,J4,SN*
G04 #@! TO.N,GND*
X180250000Y-108700000D03*
G04 #@! TO.P,J4,RN*
G04 #@! TO.N,Net-(J4-PadR)*
X176450000Y-108700000D03*
G04 #@! TO.P,J4,TN*
G04 #@! TO.N,Net-(C1-Pad1)*
X172650000Y-108700000D03*
G04 #@! TO.P,J4,S*
G04 #@! TO.N,GND*
X180250000Y-99300000D03*
G04 #@! TO.P,J4,R*
G04 #@! TO.N,Net-(J4-PadR)*
X176450000Y-99300000D03*
G04 #@! TO.P,J4,T*
G04 #@! TO.N,Net-(C1-Pad1)*
X172650000Y-99300000D03*
G04 #@! TD*
D12*
G04 #@! TO.N,Net-(C1-Pad1)*
G04 #@! TO.C,R1*
G36*
X164124505Y-111301204D02*
X164148773Y-111304804D01*
X164172572Y-111310765D01*
X164195671Y-111319030D01*
X164217850Y-111329520D01*
X164238893Y-111342132D01*
X164258599Y-111356747D01*
X164276777Y-111373223D01*
X164293253Y-111391401D01*
X164307868Y-111411107D01*
X164320480Y-111432150D01*
X164330970Y-111454329D01*
X164339235Y-111477428D01*
X164345196Y-111501227D01*
X164348796Y-111525495D01*
X164350000Y-111549999D01*
X164350000Y-112450001D01*
X164348796Y-112474505D01*
X164345196Y-112498773D01*
X164339235Y-112522572D01*
X164330970Y-112545671D01*
X164320480Y-112567850D01*
X164307868Y-112588893D01*
X164293253Y-112608599D01*
X164276777Y-112626777D01*
X164258599Y-112643253D01*
X164238893Y-112657868D01*
X164217850Y-112670480D01*
X164195671Y-112680970D01*
X164172572Y-112689235D01*
X164148773Y-112695196D01*
X164124505Y-112698796D01*
X164100001Y-112700000D01*
X163449999Y-112700000D01*
X163425495Y-112698796D01*
X163401227Y-112695196D01*
X163377428Y-112689235D01*
X163354329Y-112680970D01*
X163332150Y-112670480D01*
X163311107Y-112657868D01*
X163291401Y-112643253D01*
X163273223Y-112626777D01*
X163256747Y-112608599D01*
X163242132Y-112588893D01*
X163229520Y-112567850D01*
X163219030Y-112545671D01*
X163210765Y-112522572D01*
X163204804Y-112498773D01*
X163201204Y-112474505D01*
X163200000Y-112450001D01*
X163200000Y-111549999D01*
X163201204Y-111525495D01*
X163204804Y-111501227D01*
X163210765Y-111477428D01*
X163219030Y-111454329D01*
X163229520Y-111432150D01*
X163242132Y-111411107D01*
X163256747Y-111391401D01*
X163273223Y-111373223D01*
X163291401Y-111356747D01*
X163311107Y-111342132D01*
X163332150Y-111329520D01*
X163354329Y-111319030D01*
X163377428Y-111310765D01*
X163401227Y-111304804D01*
X163425495Y-111301204D01*
X163449999Y-111300000D01*
X164100001Y-111300000D01*
X164124505Y-111301204D01*
X164124505Y-111301204D01*
G37*
D13*
G04 #@! TD*
G04 #@! TO.P,R1,1*
G04 #@! TO.N,Net-(C1-Pad1)*
X163775000Y-112000000D03*
D12*
G04 #@! TO.N,Net-(J2-Pad4)*
G04 #@! TO.C,R1*
G36*
X162074505Y-111301204D02*
X162098773Y-111304804D01*
X162122572Y-111310765D01*
X162145671Y-111319030D01*
X162167850Y-111329520D01*
X162188893Y-111342132D01*
X162208599Y-111356747D01*
X162226777Y-111373223D01*
X162243253Y-111391401D01*
X162257868Y-111411107D01*
X162270480Y-111432150D01*
X162280970Y-111454329D01*
X162289235Y-111477428D01*
X162295196Y-111501227D01*
X162298796Y-111525495D01*
X162300000Y-111549999D01*
X162300000Y-112450001D01*
X162298796Y-112474505D01*
X162295196Y-112498773D01*
X162289235Y-112522572D01*
X162280970Y-112545671D01*
X162270480Y-112567850D01*
X162257868Y-112588893D01*
X162243253Y-112608599D01*
X162226777Y-112626777D01*
X162208599Y-112643253D01*
X162188893Y-112657868D01*
X162167850Y-112670480D01*
X162145671Y-112680970D01*
X162122572Y-112689235D01*
X162098773Y-112695196D01*
X162074505Y-112698796D01*
X162050001Y-112700000D01*
X161399999Y-112700000D01*
X161375495Y-112698796D01*
X161351227Y-112695196D01*
X161327428Y-112689235D01*
X161304329Y-112680970D01*
X161282150Y-112670480D01*
X161261107Y-112657868D01*
X161241401Y-112643253D01*
X161223223Y-112626777D01*
X161206747Y-112608599D01*
X161192132Y-112588893D01*
X161179520Y-112567850D01*
X161169030Y-112545671D01*
X161160765Y-112522572D01*
X161154804Y-112498773D01*
X161151204Y-112474505D01*
X161150000Y-112450001D01*
X161150000Y-111549999D01*
X161151204Y-111525495D01*
X161154804Y-111501227D01*
X161160765Y-111477428D01*
X161169030Y-111454329D01*
X161179520Y-111432150D01*
X161192132Y-111411107D01*
X161206747Y-111391401D01*
X161223223Y-111373223D01*
X161241401Y-111356747D01*
X161261107Y-111342132D01*
X161282150Y-111329520D01*
X161304329Y-111319030D01*
X161327428Y-111310765D01*
X161351227Y-111304804D01*
X161375495Y-111301204D01*
X161399999Y-111300000D01*
X162050001Y-111300000D01*
X162074505Y-111301204D01*
X162074505Y-111301204D01*
G37*
D13*
G04 #@! TD*
G04 #@! TO.P,R1,2*
G04 #@! TO.N,Net-(J2-Pad4)*
X161725000Y-112000000D03*
D12*
G04 #@! TO.N,Net-(J3-PadT)*
G04 #@! TO.C,R2*
G36*
X166099505Y-88051204D02*
X166123773Y-88054804D01*
X166147572Y-88060765D01*
X166170671Y-88069030D01*
X166192850Y-88079520D01*
X166213893Y-88092132D01*
X166233599Y-88106747D01*
X166251777Y-88123223D01*
X166268253Y-88141401D01*
X166282868Y-88161107D01*
X166295480Y-88182150D01*
X166305970Y-88204329D01*
X166314235Y-88227428D01*
X166320196Y-88251227D01*
X166323796Y-88275495D01*
X166325000Y-88299999D01*
X166325000Y-89200001D01*
X166323796Y-89224505D01*
X166320196Y-89248773D01*
X166314235Y-89272572D01*
X166305970Y-89295671D01*
X166295480Y-89317850D01*
X166282868Y-89338893D01*
X166268253Y-89358599D01*
X166251777Y-89376777D01*
X166233599Y-89393253D01*
X166213893Y-89407868D01*
X166192850Y-89420480D01*
X166170671Y-89430970D01*
X166147572Y-89439235D01*
X166123773Y-89445196D01*
X166099505Y-89448796D01*
X166075001Y-89450000D01*
X165424999Y-89450000D01*
X165400495Y-89448796D01*
X165376227Y-89445196D01*
X165352428Y-89439235D01*
X165329329Y-89430970D01*
X165307150Y-89420480D01*
X165286107Y-89407868D01*
X165266401Y-89393253D01*
X165248223Y-89376777D01*
X165231747Y-89358599D01*
X165217132Y-89338893D01*
X165204520Y-89317850D01*
X165194030Y-89295671D01*
X165185765Y-89272572D01*
X165179804Y-89248773D01*
X165176204Y-89224505D01*
X165175000Y-89200001D01*
X165175000Y-88299999D01*
X165176204Y-88275495D01*
X165179804Y-88251227D01*
X165185765Y-88227428D01*
X165194030Y-88204329D01*
X165204520Y-88182150D01*
X165217132Y-88161107D01*
X165231747Y-88141401D01*
X165248223Y-88123223D01*
X165266401Y-88106747D01*
X165286107Y-88092132D01*
X165307150Y-88079520D01*
X165329329Y-88069030D01*
X165352428Y-88060765D01*
X165376227Y-88054804D01*
X165400495Y-88051204D01*
X165424999Y-88050000D01*
X166075001Y-88050000D01*
X166099505Y-88051204D01*
X166099505Y-88051204D01*
G37*
D13*
G04 #@! TD*
G04 #@! TO.P,R2,1*
G04 #@! TO.N,Net-(J3-PadT)*
X165750000Y-88750000D03*
D12*
G04 #@! TO.N,Net-(J1-Pad3)*
G04 #@! TO.C,R2*
G36*
X164049505Y-88051204D02*
X164073773Y-88054804D01*
X164097572Y-88060765D01*
X164120671Y-88069030D01*
X164142850Y-88079520D01*
X164163893Y-88092132D01*
X164183599Y-88106747D01*
X164201777Y-88123223D01*
X164218253Y-88141401D01*
X164232868Y-88161107D01*
X164245480Y-88182150D01*
X164255970Y-88204329D01*
X164264235Y-88227428D01*
X164270196Y-88251227D01*
X164273796Y-88275495D01*
X164275000Y-88299999D01*
X164275000Y-89200001D01*
X164273796Y-89224505D01*
X164270196Y-89248773D01*
X164264235Y-89272572D01*
X164255970Y-89295671D01*
X164245480Y-89317850D01*
X164232868Y-89338893D01*
X164218253Y-89358599D01*
X164201777Y-89376777D01*
X164183599Y-89393253D01*
X164163893Y-89407868D01*
X164142850Y-89420480D01*
X164120671Y-89430970D01*
X164097572Y-89439235D01*
X164073773Y-89445196D01*
X164049505Y-89448796D01*
X164025001Y-89450000D01*
X163374999Y-89450000D01*
X163350495Y-89448796D01*
X163326227Y-89445196D01*
X163302428Y-89439235D01*
X163279329Y-89430970D01*
X163257150Y-89420480D01*
X163236107Y-89407868D01*
X163216401Y-89393253D01*
X163198223Y-89376777D01*
X163181747Y-89358599D01*
X163167132Y-89338893D01*
X163154520Y-89317850D01*
X163144030Y-89295671D01*
X163135765Y-89272572D01*
X163129804Y-89248773D01*
X163126204Y-89224505D01*
X163125000Y-89200001D01*
X163125000Y-88299999D01*
X163126204Y-88275495D01*
X163129804Y-88251227D01*
X163135765Y-88227428D01*
X163144030Y-88204329D01*
X163154520Y-88182150D01*
X163167132Y-88161107D01*
X163181747Y-88141401D01*
X163198223Y-88123223D01*
X163216401Y-88106747D01*
X163236107Y-88092132D01*
X163257150Y-88079520D01*
X163279329Y-88069030D01*
X163302428Y-88060765D01*
X163326227Y-88054804D01*
X163350495Y-88051204D01*
X163374999Y-88050000D01*
X164025001Y-88050000D01*
X164049505Y-88051204D01*
X164049505Y-88051204D01*
G37*
D13*
G04 #@! TD*
G04 #@! TO.P,R2,2*
G04 #@! TO.N,Net-(J1-Pad3)*
X163700000Y-88750000D03*
D12*
G04 #@! TO.N,Net-(J1-Pad3)*
G04 #@! TO.C,R3*
G36*
X164049505Y-84801204D02*
X164073773Y-84804804D01*
X164097572Y-84810765D01*
X164120671Y-84819030D01*
X164142850Y-84829520D01*
X164163893Y-84842132D01*
X164183599Y-84856747D01*
X164201777Y-84873223D01*
X164218253Y-84891401D01*
X164232868Y-84911107D01*
X164245480Y-84932150D01*
X164255970Y-84954329D01*
X164264235Y-84977428D01*
X164270196Y-85001227D01*
X164273796Y-85025495D01*
X164275000Y-85049999D01*
X164275000Y-85950001D01*
X164273796Y-85974505D01*
X164270196Y-85998773D01*
X164264235Y-86022572D01*
X164255970Y-86045671D01*
X164245480Y-86067850D01*
X164232868Y-86088893D01*
X164218253Y-86108599D01*
X164201777Y-86126777D01*
X164183599Y-86143253D01*
X164163893Y-86157868D01*
X164142850Y-86170480D01*
X164120671Y-86180970D01*
X164097572Y-86189235D01*
X164073773Y-86195196D01*
X164049505Y-86198796D01*
X164025001Y-86200000D01*
X163374999Y-86200000D01*
X163350495Y-86198796D01*
X163326227Y-86195196D01*
X163302428Y-86189235D01*
X163279329Y-86180970D01*
X163257150Y-86170480D01*
X163236107Y-86157868D01*
X163216401Y-86143253D01*
X163198223Y-86126777D01*
X163181747Y-86108599D01*
X163167132Y-86088893D01*
X163154520Y-86067850D01*
X163144030Y-86045671D01*
X163135765Y-86022572D01*
X163129804Y-85998773D01*
X163126204Y-85974505D01*
X163125000Y-85950001D01*
X163125000Y-85049999D01*
X163126204Y-85025495D01*
X163129804Y-85001227D01*
X163135765Y-84977428D01*
X163144030Y-84954329D01*
X163154520Y-84932150D01*
X163167132Y-84911107D01*
X163181747Y-84891401D01*
X163198223Y-84873223D01*
X163216401Y-84856747D01*
X163236107Y-84842132D01*
X163257150Y-84829520D01*
X163279329Y-84819030D01*
X163302428Y-84810765D01*
X163326227Y-84804804D01*
X163350495Y-84801204D01*
X163374999Y-84800000D01*
X164025001Y-84800000D01*
X164049505Y-84801204D01*
X164049505Y-84801204D01*
G37*
D13*
G04 #@! TD*
G04 #@! TO.P,R3,2*
G04 #@! TO.N,Net-(J1-Pad3)*
X163700000Y-85500000D03*
D12*
G04 #@! TO.N,Net-(J3-PadR)*
G04 #@! TO.C,R3*
G36*
X166099505Y-84801204D02*
X166123773Y-84804804D01*
X166147572Y-84810765D01*
X166170671Y-84819030D01*
X166192850Y-84829520D01*
X166213893Y-84842132D01*
X166233599Y-84856747D01*
X166251777Y-84873223D01*
X166268253Y-84891401D01*
X166282868Y-84911107D01*
X166295480Y-84932150D01*
X166305970Y-84954329D01*
X166314235Y-84977428D01*
X166320196Y-85001227D01*
X166323796Y-85025495D01*
X166325000Y-85049999D01*
X166325000Y-85950001D01*
X166323796Y-85974505D01*
X166320196Y-85998773D01*
X166314235Y-86022572D01*
X166305970Y-86045671D01*
X166295480Y-86067850D01*
X166282868Y-86088893D01*
X166268253Y-86108599D01*
X166251777Y-86126777D01*
X166233599Y-86143253D01*
X166213893Y-86157868D01*
X166192850Y-86170480D01*
X166170671Y-86180970D01*
X166147572Y-86189235D01*
X166123773Y-86195196D01*
X166099505Y-86198796D01*
X166075001Y-86200000D01*
X165424999Y-86200000D01*
X165400495Y-86198796D01*
X165376227Y-86195196D01*
X165352428Y-86189235D01*
X165329329Y-86180970D01*
X165307150Y-86170480D01*
X165286107Y-86157868D01*
X165266401Y-86143253D01*
X165248223Y-86126777D01*
X165231747Y-86108599D01*
X165217132Y-86088893D01*
X165204520Y-86067850D01*
X165194030Y-86045671D01*
X165185765Y-86022572D01*
X165179804Y-85998773D01*
X165176204Y-85974505D01*
X165175000Y-85950001D01*
X165175000Y-85049999D01*
X165176204Y-85025495D01*
X165179804Y-85001227D01*
X165185765Y-84977428D01*
X165194030Y-84954329D01*
X165204520Y-84932150D01*
X165217132Y-84911107D01*
X165231747Y-84891401D01*
X165248223Y-84873223D01*
X165266401Y-84856747D01*
X165286107Y-84842132D01*
X165307150Y-84829520D01*
X165329329Y-84819030D01*
X165352428Y-84810765D01*
X165376227Y-84804804D01*
X165400495Y-84801204D01*
X165424999Y-84800000D01*
X166075001Y-84800000D01*
X166099505Y-84801204D01*
X166099505Y-84801204D01*
G37*
D13*
G04 #@! TD*
G04 #@! TO.P,R3,1*
G04 #@! TO.N,Net-(J3-PadR)*
X165750000Y-85500000D03*
D17*
G04 #@! TO.N,Net-(C1-Pad1)*
X171888001Y-107938001D02*
X172650000Y-108700000D01*
X171888001Y-100061999D02*
X171888001Y-107938001D01*
X172650000Y-99300000D02*
X171888001Y-100061999D01*
X163775000Y-117000000D02*
X163775000Y-112000000D01*
X169350000Y-112000000D02*
X172650000Y-108700000D01*
X163775000Y-112000000D02*
X169350000Y-112000000D01*
G04 #@! TO.N,Net-(C1-Pad2)*
X161645000Y-117080000D02*
X161725000Y-117000000D01*
X161605000Y-117120000D02*
X161725000Y-117000000D01*
X153250000Y-117120000D02*
X161605000Y-117120000D01*
G04 #@! TO.N,Net-(J1-Pad1)*
X180250000Y-84300000D02*
X180250000Y-93700000D01*
X153250000Y-91500000D02*
X153250000Y-88960000D01*
X178787999Y-95162001D02*
X180250000Y-93700000D01*
X160762001Y-95162001D02*
X178787999Y-95162001D01*
X153250000Y-91500000D02*
X157100000Y-91500000D01*
X157100000Y-91500000D02*
X160762001Y-95162001D01*
G04 #@! TO.N,Net-(J1-Pad3)*
X162580000Y-86420000D02*
X163500000Y-85500000D01*
X155250000Y-86420000D02*
X162580000Y-86420000D01*
X161170000Y-86420000D02*
X163500000Y-88750000D01*
X155250000Y-86420000D02*
X161170000Y-86420000D01*
X154452081Y-86420000D02*
X155250000Y-86420000D01*
X153250000Y-86420000D02*
X154452081Y-86420000D01*
G04 #@! TO.N,Net-(J2-Pad1)*
X177380000Y-119620000D02*
X177500000Y-119500000D01*
X177340000Y-119660000D02*
X177500000Y-119500000D01*
X153250000Y-119660000D02*
X177340000Y-119660000D01*
G04 #@! TO.N,Net-(J2-Pad4)*
X161685000Y-112040000D02*
X161725000Y-112000000D01*
X153250000Y-112040000D02*
X161685000Y-112040000D01*
G04 #@! TO.N,Net-(J3-PadT)*
X168200000Y-88750000D02*
X172650000Y-84300000D01*
X165750000Y-88750000D02*
X168200000Y-88750000D01*
X172650000Y-84300000D02*
X172650000Y-93700000D01*
G04 #@! TO.N,Net-(J3-PadR)*
X175688001Y-83538001D02*
X176450000Y-84300000D01*
X174987999Y-82837999D02*
X175688001Y-83538001D01*
X168412001Y-82837999D02*
X174987999Y-82837999D01*
X165750000Y-85500000D02*
X168412001Y-82837999D01*
X176450000Y-84300000D02*
X176450000Y-93700000D01*
G04 #@! TO.N,Net-(J4-PadR)*
X176450000Y-99300000D02*
X176450000Y-108700000D01*
G04 #@! TD*
M02*
