G04 #@! TF.GenerationSoftware,KiCad,Pcbnew,(5.0.1)-4*
G04 #@! TF.CreationDate,2019-02-11T23:05:39+00:00*
G04 #@! TF.ProjectId,FT-8900-Headset,46542D383930302D486561647365742E,rev?*
G04 #@! TF.SameCoordinates,Original*
G04 #@! TF.FileFunction,Legend,Top*
G04 #@! TF.FilePolarity,Positive*
%FSLAX46Y46*%
G04 Gerber Fmt 4.6, Leading zero omitted, Abs format (unit mm)*
G04 Created by KiCad (PCBNEW (5.0.1)-4) date 11/02/2019 23:05:39*
%MOMM*%
%LPD*%
G01*
G04 APERTURE LIST*
%ADD10C,0.300000*%
%ADD11C,0.250000*%
%ADD12C,0.381000*%
%ADD13C,0.120000*%
%ADD14C,0.304800*%
%ADD15C,0.150000*%
G04 APERTURE END LIST*
D10*
X159892857Y-92300000D02*
X160035714Y-92371428D01*
X160250000Y-92371428D01*
X160464285Y-92300000D01*
X160607142Y-92157142D01*
X160678571Y-92014285D01*
X160750000Y-91728571D01*
X160750000Y-91514285D01*
X160678571Y-91228571D01*
X160607142Y-91085714D01*
X160464285Y-90942857D01*
X160250000Y-90871428D01*
X160107142Y-90871428D01*
X159892857Y-90942857D01*
X159821428Y-91014285D01*
X159821428Y-91514285D01*
X160107142Y-91514285D01*
X159178571Y-90871428D02*
X159178571Y-92371428D01*
X158321428Y-90871428D01*
X158321428Y-92371428D01*
X157607142Y-90871428D02*
X157607142Y-92371428D01*
X157250000Y-92371428D01*
X157035714Y-92300000D01*
X156892857Y-92157142D01*
X156821428Y-92014285D01*
X156750000Y-91728571D01*
X156750000Y-91514285D01*
X156821428Y-91228571D01*
X156892857Y-91085714D01*
X157035714Y-90942857D01*
X157250000Y-90871428D01*
X157607142Y-90871428D01*
X160035714Y-88392857D02*
X159821428Y-88321428D01*
X159464285Y-88321428D01*
X159321428Y-88392857D01*
X159250000Y-88464285D01*
X159178571Y-88607142D01*
X159178571Y-88750000D01*
X159250000Y-88892857D01*
X159321428Y-88964285D01*
X159464285Y-89035714D01*
X159750000Y-89107142D01*
X159892857Y-89178571D01*
X159964285Y-89250000D01*
X160035714Y-89392857D01*
X160035714Y-89535714D01*
X159964285Y-89678571D01*
X159892857Y-89750000D01*
X159750000Y-89821428D01*
X159392857Y-89821428D01*
X159178571Y-89750000D01*
X158678571Y-89821428D02*
X158321428Y-88321428D01*
X158035714Y-89392857D01*
X157750000Y-88321428D01*
X157392857Y-89821428D01*
X160464285Y-85842857D02*
X160250000Y-85771428D01*
X159892857Y-85771428D01*
X159750000Y-85842857D01*
X159678571Y-85914285D01*
X159607142Y-86057142D01*
X159607142Y-86200000D01*
X159678571Y-86342857D01*
X159750000Y-86414285D01*
X159892857Y-86485714D01*
X160178571Y-86557142D01*
X160321428Y-86628571D01*
X160392857Y-86700000D01*
X160464285Y-86842857D01*
X160464285Y-86985714D01*
X160392857Y-87128571D01*
X160321428Y-87200000D01*
X160178571Y-87271428D01*
X159821428Y-87271428D01*
X159607142Y-87200000D01*
X158964285Y-86771428D02*
X158964285Y-85271428D01*
X158964285Y-86700000D02*
X158821428Y-86771428D01*
X158535714Y-86771428D01*
X158392857Y-86700000D01*
X158321428Y-86628571D01*
X158250000Y-86485714D01*
X158250000Y-86057142D01*
X158321428Y-85914285D01*
X158392857Y-85842857D01*
X158535714Y-85771428D01*
X158821428Y-85771428D01*
X158964285Y-85842857D01*
X157607142Y-85771428D02*
X157607142Y-87271428D01*
X157464285Y-86342857D02*
X157035714Y-85771428D01*
X157035714Y-86771428D02*
X157607142Y-86200000D01*
X160035714Y-118946428D02*
X160035714Y-120446428D01*
X159464285Y-120446428D01*
X159321428Y-120375000D01*
X159250000Y-120303571D01*
X159178571Y-120160714D01*
X159178571Y-119946428D01*
X159250000Y-119803571D01*
X159321428Y-119732142D01*
X159464285Y-119660714D01*
X160035714Y-119660714D01*
X158750000Y-120446428D02*
X157892857Y-120446428D01*
X158321428Y-118946428D02*
X158321428Y-120446428D01*
X157607142Y-120446428D02*
X156750000Y-120446428D01*
X157178571Y-118946428D02*
X157178571Y-120446428D01*
X160000000Y-116396428D02*
X160000000Y-117896428D01*
X159500000Y-116825000D01*
X159000000Y-117896428D01*
X159000000Y-116396428D01*
X158285714Y-116396428D02*
X158285714Y-117396428D01*
X158285714Y-117896428D02*
X158357142Y-117825000D01*
X158285714Y-117753571D01*
X158214285Y-117825000D01*
X158285714Y-117896428D01*
X158285714Y-117753571D01*
X156928571Y-116467857D02*
X157071428Y-116396428D01*
X157357142Y-116396428D01*
X157500000Y-116467857D01*
X157571428Y-116539285D01*
X157642857Y-116682142D01*
X157642857Y-117110714D01*
X157571428Y-117253571D01*
X157500000Y-117325000D01*
X157357142Y-117396428D01*
X157071428Y-117396428D01*
X156928571Y-117325000D01*
X159642857Y-115275000D02*
X159785714Y-115346428D01*
X160000000Y-115346428D01*
X160214285Y-115275000D01*
X160357142Y-115132142D01*
X160428571Y-114989285D01*
X160500000Y-114703571D01*
X160500000Y-114489285D01*
X160428571Y-114203571D01*
X160357142Y-114060714D01*
X160214285Y-113917857D01*
X160000000Y-113846428D01*
X159857142Y-113846428D01*
X159642857Y-113917857D01*
X159571428Y-113989285D01*
X159571428Y-114489285D01*
X159857142Y-114489285D01*
X158928571Y-113846428D02*
X158928571Y-115346428D01*
X158071428Y-113846428D01*
X158071428Y-115346428D01*
X157357142Y-113846428D02*
X157357142Y-115346428D01*
X157000000Y-115346428D01*
X156785714Y-115275000D01*
X156642857Y-115132142D01*
X156571428Y-114989285D01*
X156500000Y-114703571D01*
X156500000Y-114489285D01*
X156571428Y-114203571D01*
X156642857Y-114060714D01*
X156785714Y-113917857D01*
X157000000Y-113846428D01*
X157357142Y-113846428D01*
X159285714Y-112153571D02*
X159428571Y-112225000D01*
X159500000Y-112296428D01*
X159571428Y-112439285D01*
X159571428Y-112510714D01*
X159500000Y-112653571D01*
X159428571Y-112725000D01*
X159285714Y-112796428D01*
X159000000Y-112796428D01*
X158857142Y-112725000D01*
X158785714Y-112653571D01*
X158714285Y-112510714D01*
X158714285Y-112439285D01*
X158785714Y-112296428D01*
X158857142Y-112225000D01*
X159000000Y-112153571D01*
X159285714Y-112153571D01*
X159428571Y-112082142D01*
X159500000Y-112010714D01*
X159571428Y-111867857D01*
X159571428Y-111582142D01*
X159500000Y-111439285D01*
X159428571Y-111367857D01*
X159285714Y-111296428D01*
X159000000Y-111296428D01*
X158857142Y-111367857D01*
X158785714Y-111439285D01*
X158714285Y-111582142D01*
X158714285Y-111867857D01*
X158785714Y-112010714D01*
X158857142Y-112082142D01*
X159000000Y-112153571D01*
X158285714Y-112796428D02*
X157785714Y-111296428D01*
X157285714Y-112796428D01*
X160500000Y-108817857D02*
X160285714Y-108746428D01*
X159928571Y-108746428D01*
X159785714Y-108817857D01*
X159714285Y-108889285D01*
X159642857Y-109032142D01*
X159642857Y-109175000D01*
X159714285Y-109317857D01*
X159785714Y-109389285D01*
X159928571Y-109460714D01*
X160214285Y-109532142D01*
X160357142Y-109603571D01*
X160428571Y-109675000D01*
X160500000Y-109817857D01*
X160500000Y-109960714D01*
X160428571Y-110103571D01*
X160357142Y-110175000D01*
X160214285Y-110246428D01*
X159857142Y-110246428D01*
X159642857Y-110175000D01*
X159142857Y-110246428D02*
X158785714Y-108746428D01*
X158500000Y-109817857D01*
X158214285Y-108746428D01*
X157857142Y-110246428D01*
X156500000Y-108746428D02*
X157357142Y-108746428D01*
X156928571Y-108746428D02*
X156928571Y-110246428D01*
X157071428Y-110032142D01*
X157214285Y-109889285D01*
X157357142Y-109817857D01*
X160500000Y-106267857D02*
X160285714Y-106196428D01*
X159928571Y-106196428D01*
X159785714Y-106267857D01*
X159714285Y-106339285D01*
X159642857Y-106482142D01*
X159642857Y-106625000D01*
X159714285Y-106767857D01*
X159785714Y-106839285D01*
X159928571Y-106910714D01*
X160214285Y-106982142D01*
X160357142Y-107053571D01*
X160428571Y-107125000D01*
X160500000Y-107267857D01*
X160500000Y-107410714D01*
X160428571Y-107553571D01*
X160357142Y-107625000D01*
X160214285Y-107696428D01*
X159857142Y-107696428D01*
X159642857Y-107625000D01*
X159142857Y-107696428D02*
X158785714Y-106196428D01*
X158500000Y-107267857D01*
X158214285Y-106196428D01*
X157857142Y-107696428D01*
X157357142Y-107553571D02*
X157285714Y-107625000D01*
X157142857Y-107696428D01*
X156785714Y-107696428D01*
X156642857Y-107625000D01*
X156571428Y-107553571D01*
X156500000Y-107410714D01*
X156500000Y-107267857D01*
X156571428Y-107053571D01*
X157428571Y-106196428D01*
X156500000Y-106196428D01*
X169178571Y-92928571D02*
X167678571Y-92928571D01*
X167678571Y-92357142D01*
X167750000Y-92214285D01*
X167821428Y-92142857D01*
X167964285Y-92071428D01*
X168178571Y-92071428D01*
X168321428Y-92142857D01*
X168392857Y-92214285D01*
X168464285Y-92357142D01*
X168464285Y-92928571D01*
X169178571Y-91428571D02*
X167678571Y-91428571D01*
X169178571Y-90785714D02*
X168392857Y-90785714D01*
X168250000Y-90857142D01*
X168178571Y-91000000D01*
X168178571Y-91214285D01*
X168250000Y-91357142D01*
X168321428Y-91428571D01*
X169178571Y-89857142D02*
X169107142Y-90000000D01*
X169035714Y-90071428D01*
X168892857Y-90142857D01*
X168464285Y-90142857D01*
X168321428Y-90071428D01*
X168250000Y-90000000D01*
X168178571Y-89857142D01*
X168178571Y-89642857D01*
X168250000Y-89500000D01*
X168321428Y-89428571D01*
X168464285Y-89357142D01*
X168892857Y-89357142D01*
X169035714Y-89428571D01*
X169107142Y-89500000D01*
X169178571Y-89642857D01*
X169178571Y-89857142D01*
X168178571Y-88714285D02*
X169178571Y-88714285D01*
X168321428Y-88714285D02*
X168250000Y-88642857D01*
X168178571Y-88500000D01*
X168178571Y-88285714D01*
X168250000Y-88142857D01*
X168392857Y-88071428D01*
X169178571Y-88071428D01*
X169107142Y-86785714D02*
X169178571Y-86928571D01*
X169178571Y-87214285D01*
X169107142Y-87357142D01*
X168964285Y-87428571D01*
X168392857Y-87428571D01*
X168250000Y-87357142D01*
X168178571Y-87214285D01*
X168178571Y-86928571D01*
X168250000Y-86785714D01*
X168392857Y-86714285D01*
X168535714Y-86714285D01*
X168678571Y-87428571D01*
X169107142Y-86142857D02*
X169178571Y-86000000D01*
X169178571Y-85714285D01*
X169107142Y-85571428D01*
X168964285Y-85500000D01*
X168892857Y-85500000D01*
X168750000Y-85571428D01*
X168678571Y-85714285D01*
X168678571Y-85928571D01*
X168607142Y-86071428D01*
X168464285Y-86142857D01*
X168392857Y-86142857D01*
X168250000Y-86071428D01*
X168178571Y-85928571D01*
X168178571Y-85714285D01*
X168250000Y-85571428D01*
X169428571Y-105500000D02*
X167928571Y-105500000D01*
X169000000Y-105000000D01*
X167928571Y-104500000D01*
X169428571Y-104500000D01*
X169428571Y-103785714D02*
X168428571Y-103785714D01*
X167928571Y-103785714D02*
X168000000Y-103857142D01*
X168071428Y-103785714D01*
X168000000Y-103714285D01*
X167928571Y-103785714D01*
X168071428Y-103785714D01*
X169357142Y-102428571D02*
X169428571Y-102571428D01*
X169428571Y-102857142D01*
X169357142Y-103000000D01*
X169285714Y-103071428D01*
X169142857Y-103142857D01*
X168714285Y-103142857D01*
X168571428Y-103071428D01*
X168500000Y-103000000D01*
X168428571Y-102857142D01*
X168428571Y-102571428D01*
X168500000Y-102428571D01*
D11*
X162553571Y-106797619D02*
X162553571Y-107130952D01*
X163077380Y-107130952D02*
X162077380Y-107130952D01*
X162077380Y-106654761D01*
X162077380Y-106416666D02*
X162077380Y-105845238D01*
X163077380Y-106130952D02*
X162077380Y-106130952D01*
X162696428Y-105511904D02*
X162696428Y-104750000D01*
X162505952Y-104130952D02*
X162458333Y-104226190D01*
X162410714Y-104273809D01*
X162315476Y-104321428D01*
X162267857Y-104321428D01*
X162172619Y-104273809D01*
X162125000Y-104226190D01*
X162077380Y-104130952D01*
X162077380Y-103940476D01*
X162125000Y-103845238D01*
X162172619Y-103797619D01*
X162267857Y-103750000D01*
X162315476Y-103750000D01*
X162410714Y-103797619D01*
X162458333Y-103845238D01*
X162505952Y-103940476D01*
X162505952Y-104130952D01*
X162553571Y-104226190D01*
X162601190Y-104273809D01*
X162696428Y-104321428D01*
X162886904Y-104321428D01*
X162982142Y-104273809D01*
X163029761Y-104226190D01*
X163077380Y-104130952D01*
X163077380Y-103940476D01*
X163029761Y-103845238D01*
X162982142Y-103797619D01*
X162886904Y-103750000D01*
X162696428Y-103750000D01*
X162601190Y-103797619D01*
X162553571Y-103845238D01*
X162505952Y-103940476D01*
X163077380Y-103273809D02*
X163077380Y-103083333D01*
X163029761Y-102988095D01*
X162982142Y-102940476D01*
X162839285Y-102845238D01*
X162648809Y-102797619D01*
X162267857Y-102797619D01*
X162172619Y-102845238D01*
X162125000Y-102892857D01*
X162077380Y-102988095D01*
X162077380Y-103178571D01*
X162125000Y-103273809D01*
X162172619Y-103321428D01*
X162267857Y-103369047D01*
X162505952Y-103369047D01*
X162601190Y-103321428D01*
X162648809Y-103273809D01*
X162696428Y-103178571D01*
X162696428Y-102988095D01*
X162648809Y-102892857D01*
X162601190Y-102845238D01*
X162505952Y-102797619D01*
X162077380Y-102178571D02*
X162077380Y-102083333D01*
X162125000Y-101988095D01*
X162172619Y-101940476D01*
X162267857Y-101892857D01*
X162458333Y-101845238D01*
X162696428Y-101845238D01*
X162886904Y-101892857D01*
X162982142Y-101940476D01*
X163029761Y-101988095D01*
X163077380Y-102083333D01*
X163077380Y-102178571D01*
X163029761Y-102273809D01*
X162982142Y-102321428D01*
X162886904Y-102369047D01*
X162696428Y-102416666D01*
X162458333Y-102416666D01*
X162267857Y-102369047D01*
X162172619Y-102321428D01*
X162125000Y-102273809D01*
X162077380Y-102178571D01*
X162077380Y-101226190D02*
X162077380Y-101130952D01*
X162125000Y-101035714D01*
X162172619Y-100988095D01*
X162267857Y-100940476D01*
X162458333Y-100892857D01*
X162696428Y-100892857D01*
X162886904Y-100940476D01*
X162982142Y-100988095D01*
X163029761Y-101035714D01*
X163077380Y-101130952D01*
X163077380Y-101226190D01*
X163029761Y-101321428D01*
X162982142Y-101369047D01*
X162886904Y-101416666D01*
X162696428Y-101464285D01*
X162458333Y-101464285D01*
X162267857Y-101416666D01*
X162172619Y-101369047D01*
X162125000Y-101321428D01*
X162077380Y-101226190D01*
X163077380Y-99702380D02*
X162077380Y-99702380D01*
X163077380Y-99273809D02*
X162553571Y-99273809D01*
X162458333Y-99321428D01*
X162410714Y-99416666D01*
X162410714Y-99559523D01*
X162458333Y-99654761D01*
X162505952Y-99702380D01*
X163029761Y-98416666D02*
X163077380Y-98511904D01*
X163077380Y-98702380D01*
X163029761Y-98797619D01*
X162934523Y-98845238D01*
X162553571Y-98845238D01*
X162458333Y-98797619D01*
X162410714Y-98702380D01*
X162410714Y-98511904D01*
X162458333Y-98416666D01*
X162553571Y-98369047D01*
X162648809Y-98369047D01*
X162744047Y-98845238D01*
X163077380Y-97511904D02*
X162553571Y-97511904D01*
X162458333Y-97559523D01*
X162410714Y-97654761D01*
X162410714Y-97845238D01*
X162458333Y-97940476D01*
X163029761Y-97511904D02*
X163077380Y-97607142D01*
X163077380Y-97845238D01*
X163029761Y-97940476D01*
X162934523Y-97988095D01*
X162839285Y-97988095D01*
X162744047Y-97940476D01*
X162696428Y-97845238D01*
X162696428Y-97607142D01*
X162648809Y-97511904D01*
X163077380Y-96607142D02*
X162077380Y-96607142D01*
X163029761Y-96607142D02*
X163077380Y-96702380D01*
X163077380Y-96892857D01*
X163029761Y-96988095D01*
X162982142Y-97035714D01*
X162886904Y-97083333D01*
X162601190Y-97083333D01*
X162505952Y-97035714D01*
X162458333Y-96988095D01*
X162410714Y-96892857D01*
X162410714Y-96702380D01*
X162458333Y-96607142D01*
X163029761Y-96178571D02*
X163077380Y-96083333D01*
X163077380Y-95892857D01*
X163029761Y-95797619D01*
X162934523Y-95750000D01*
X162886904Y-95750000D01*
X162791666Y-95797619D01*
X162744047Y-95892857D01*
X162744047Y-96035714D01*
X162696428Y-96130952D01*
X162601190Y-96178571D01*
X162553571Y-96178571D01*
X162458333Y-96130952D01*
X162410714Y-96035714D01*
X162410714Y-95892857D01*
X162458333Y-95797619D01*
X163029761Y-94940476D02*
X163077380Y-95035714D01*
X163077380Y-95226190D01*
X163029761Y-95321428D01*
X162934523Y-95369047D01*
X162553571Y-95369047D01*
X162458333Y-95321428D01*
X162410714Y-95226190D01*
X162410714Y-95035714D01*
X162458333Y-94940476D01*
X162553571Y-94892857D01*
X162648809Y-94892857D01*
X162744047Y-95369047D01*
X162410714Y-94607142D02*
X162410714Y-94226190D01*
X162077380Y-94464285D02*
X162934523Y-94464285D01*
X163029761Y-94416666D01*
X163077380Y-94321428D01*
X163077380Y-94226190D01*
X164827380Y-108345238D02*
X163827380Y-108345238D01*
X164541666Y-108011904D01*
X163827380Y-107678571D01*
X164827380Y-107678571D01*
X163827380Y-107011904D02*
X163827380Y-106916666D01*
X163875000Y-106821428D01*
X163922619Y-106773809D01*
X164017857Y-106726190D01*
X164208333Y-106678571D01*
X164446428Y-106678571D01*
X164636904Y-106726190D01*
X164732142Y-106773809D01*
X164779761Y-106821428D01*
X164827380Y-106916666D01*
X164827380Y-107011904D01*
X164779761Y-107107142D01*
X164732142Y-107154761D01*
X164636904Y-107202380D01*
X164446428Y-107250000D01*
X164208333Y-107250000D01*
X164017857Y-107202380D01*
X163922619Y-107154761D01*
X163875000Y-107107142D01*
X163827380Y-107011904D01*
X163827380Y-106392857D02*
X164827380Y-106059523D01*
X163827380Y-105726190D01*
X164303571Y-105059523D02*
X164303571Y-105392857D01*
X164827380Y-105392857D02*
X163827380Y-105392857D01*
X163827380Y-104916666D01*
X164732142Y-103964285D02*
X164779761Y-104011904D01*
X164827380Y-104154761D01*
X164827380Y-104250000D01*
X164779761Y-104392857D01*
X164684523Y-104488095D01*
X164589285Y-104535714D01*
X164398809Y-104583333D01*
X164255952Y-104583333D01*
X164065476Y-104535714D01*
X163970238Y-104488095D01*
X163875000Y-104392857D01*
X163827380Y-104250000D01*
X163827380Y-104154761D01*
X163875000Y-104011904D01*
X163922619Y-103964285D01*
X163922619Y-102821428D02*
X163875000Y-102773809D01*
X163827380Y-102678571D01*
X163827380Y-102440476D01*
X163875000Y-102345238D01*
X163922619Y-102297619D01*
X164017857Y-102250000D01*
X164113095Y-102250000D01*
X164255952Y-102297619D01*
X164827380Y-102869047D01*
X164827380Y-102250000D01*
X163827380Y-101630952D02*
X163827380Y-101535714D01*
X163875000Y-101440476D01*
X163922619Y-101392857D01*
X164017857Y-101345238D01*
X164208333Y-101297619D01*
X164446428Y-101297619D01*
X164636904Y-101345238D01*
X164732142Y-101392857D01*
X164779761Y-101440476D01*
X164827380Y-101535714D01*
X164827380Y-101630952D01*
X164779761Y-101726190D01*
X164732142Y-101773809D01*
X164636904Y-101821428D01*
X164446428Y-101869047D01*
X164208333Y-101869047D01*
X164017857Y-101821428D01*
X163922619Y-101773809D01*
X163875000Y-101726190D01*
X163827380Y-101630952D01*
X164827380Y-100345238D02*
X164827380Y-100916666D01*
X164827380Y-100630952D02*
X163827380Y-100630952D01*
X163970238Y-100726190D01*
X164065476Y-100821428D01*
X164113095Y-100916666D01*
X164827380Y-99869047D02*
X164827380Y-99678571D01*
X164779761Y-99583333D01*
X164732142Y-99535714D01*
X164589285Y-99440476D01*
X164398809Y-99392857D01*
X164017857Y-99392857D01*
X163922619Y-99440476D01*
X163875000Y-99488095D01*
X163827380Y-99583333D01*
X163827380Y-99773809D01*
X163875000Y-99869047D01*
X163922619Y-99916666D01*
X164017857Y-99964285D01*
X164255952Y-99964285D01*
X164351190Y-99916666D01*
X164398809Y-99869047D01*
X164446428Y-99773809D01*
X164446428Y-99583333D01*
X164398809Y-99488095D01*
X164351190Y-99440476D01*
X164255952Y-99392857D01*
X164446428Y-98964285D02*
X164446428Y-98202380D01*
X163827380Y-97535714D02*
X163827380Y-97440476D01*
X163875000Y-97345238D01*
X163922619Y-97297619D01*
X164017857Y-97250000D01*
X164208333Y-97202380D01*
X164446428Y-97202380D01*
X164636904Y-97250000D01*
X164732142Y-97297619D01*
X164779761Y-97345238D01*
X164827380Y-97440476D01*
X164827380Y-97535714D01*
X164779761Y-97630952D01*
X164732142Y-97678571D01*
X164636904Y-97726190D01*
X164446428Y-97773809D01*
X164208333Y-97773809D01*
X164017857Y-97726190D01*
X163922619Y-97678571D01*
X163875000Y-97630952D01*
X163827380Y-97535714D01*
X163922619Y-96821428D02*
X163875000Y-96773809D01*
X163827380Y-96678571D01*
X163827380Y-96440476D01*
X163875000Y-96345238D01*
X163922619Y-96297619D01*
X164017857Y-96250000D01*
X164113095Y-96250000D01*
X164255952Y-96297619D01*
X164827380Y-96869047D01*
X164827380Y-96250000D01*
X164446428Y-95821428D02*
X164446428Y-95059523D01*
X164827380Y-94059523D02*
X164827380Y-94630952D01*
X164827380Y-94345238D02*
X163827380Y-94345238D01*
X163970238Y-94440476D01*
X164065476Y-94535714D01*
X164113095Y-94630952D01*
X164827380Y-93107142D02*
X164827380Y-93678571D01*
X164827380Y-93392857D02*
X163827380Y-93392857D01*
X163970238Y-93488095D01*
X164065476Y-93583333D01*
X164113095Y-93678571D01*
D12*
G04 #@! TO.C,J5*
X170700420Y-114699400D02*
X182501260Y-114699400D01*
X182498720Y-124300600D02*
X170697880Y-124300600D01*
X182501260Y-114699400D02*
X182501260Y-124300600D01*
X170700420Y-117699140D02*
X170700420Y-114699400D01*
X171500520Y-117699140D02*
X170700420Y-117699140D01*
X171500520Y-121300860D02*
X171500520Y-117699140D01*
X170700420Y-121300860D02*
X171500520Y-121300860D01*
X170700420Y-124300600D02*
X170700420Y-121300860D01*
X174401200Y-124900040D02*
X172600340Y-124900040D01*
X174401200Y-124300600D02*
X174401200Y-124900040D01*
X172600340Y-124900040D02*
X172600340Y-124300600D01*
X174401200Y-114099960D02*
X174401200Y-114699400D01*
X172600340Y-114099960D02*
X174401200Y-114099960D01*
X172600340Y-114699400D02*
X172600340Y-114099960D01*
X191500480Y-115199780D02*
X182501260Y-115199780D01*
X191500480Y-123800220D02*
X191500480Y-115199780D01*
X182501260Y-123800220D02*
X191500480Y-123800220D01*
X178053516Y-116248800D02*
G75*
G03X178053516Y-116248800I-553516J0D01*
G01*
X178048640Y-122751200D02*
G75*
G03X178048640Y-122751200I-548640J0D01*
G01*
X182051487Y-122751200D02*
G75*
G03X182051487Y-122751200I-550987J0D01*
G01*
X182053789Y-116248800D02*
G75*
G03X182053789Y-116248800I-553289J0D01*
G01*
X172254696Y-116248800D02*
G75*
G03X172254696Y-116248800I-553516J0D01*
G01*
X172249820Y-122751200D02*
G75*
G03X172249820Y-122751200I-548640J0D01*
G01*
D13*
G04 #@! TO.C,C1*
X163011252Y-117710000D02*
X162488748Y-117710000D01*
X163011252Y-116290000D02*
X162488748Y-116290000D01*
G04 #@! TO.C,J1*
X154580000Y-85090000D02*
X151920000Y-85090000D01*
X154580000Y-90230000D02*
X154580000Y-85090000D01*
X151920000Y-90230000D02*
X151920000Y-85090000D01*
X154580000Y-90230000D02*
X151920000Y-90230000D01*
X154580000Y-91500000D02*
X154580000Y-92830000D01*
X154580000Y-92830000D02*
X153250000Y-92830000D01*
G04 #@! TO.C,J2*
X154580000Y-105630000D02*
X151920000Y-105630000D01*
X154580000Y-118390000D02*
X154580000Y-105630000D01*
X151920000Y-118390000D02*
X151920000Y-105630000D01*
X154580000Y-118390000D02*
X151920000Y-118390000D01*
X154580000Y-119660000D02*
X154580000Y-120990000D01*
X154580000Y-120990000D02*
X153250000Y-120990000D01*
G04 #@! TO.C,R1*
X163011252Y-112710000D02*
X162488748Y-112710000D01*
X163011252Y-111290000D02*
X162488748Y-111290000D01*
G04 #@! TO.C,R2*
X164986252Y-89460000D02*
X164463748Y-89460000D01*
X164986252Y-88040000D02*
X164463748Y-88040000D01*
G04 #@! TO.C,R3*
X164986252Y-84790000D02*
X164463748Y-84790000D01*
X164986252Y-86210000D02*
X164463748Y-86210000D01*
G04 #@! TO.C,J5*
D14*
X192464228Y-120008000D02*
X193552800Y-120008000D01*
X193770514Y-120080571D01*
X193915657Y-120225714D01*
X193988228Y-120443428D01*
X193988228Y-120588571D01*
X192464228Y-118556571D02*
X192464228Y-119282285D01*
X193189942Y-119354857D01*
X193117371Y-119282285D01*
X193044800Y-119137142D01*
X193044800Y-118774285D01*
X193117371Y-118629142D01*
X193189942Y-118556571D01*
X193335085Y-118484000D01*
X193697942Y-118484000D01*
X193843085Y-118556571D01*
X193915657Y-118629142D01*
X193988228Y-118774285D01*
X193988228Y-119137142D01*
X193915657Y-119282285D01*
X193843085Y-119354857D01*
X169439428Y-122443142D02*
X167915428Y-122443142D01*
X167915428Y-121862571D01*
X167988000Y-121717428D01*
X168060571Y-121644857D01*
X168205714Y-121572285D01*
X168423428Y-121572285D01*
X168568571Y-121644857D01*
X168641142Y-121717428D01*
X168713714Y-121862571D01*
X168713714Y-122443142D01*
X167915428Y-121136857D02*
X167915428Y-120266000D01*
X169439428Y-120701428D02*
X167915428Y-120701428D01*
X167915428Y-119975714D02*
X167915428Y-119104857D01*
X169439428Y-119540285D02*
X167915428Y-119540285D01*
X169439428Y-117435714D02*
X168423428Y-117435714D01*
X167915428Y-117435714D02*
X167988000Y-117508285D01*
X168060571Y-117435714D01*
X167988000Y-117363142D01*
X167915428Y-117435714D01*
X168060571Y-117435714D01*
X168423428Y-116710000D02*
X169439428Y-116710000D01*
X168568571Y-116710000D02*
X168496000Y-116637428D01*
X168423428Y-116492285D01*
X168423428Y-116274571D01*
X168496000Y-116129428D01*
X168641142Y-116056857D01*
X169439428Y-116056857D01*
G04 #@! TO.C,C1*
D15*
X162583333Y-119007142D02*
X162535714Y-119054761D01*
X162392857Y-119102380D01*
X162297619Y-119102380D01*
X162154761Y-119054761D01*
X162059523Y-118959523D01*
X162011904Y-118864285D01*
X161964285Y-118673809D01*
X161964285Y-118530952D01*
X162011904Y-118340476D01*
X162059523Y-118245238D01*
X162154761Y-118150000D01*
X162297619Y-118102380D01*
X162392857Y-118102380D01*
X162535714Y-118150000D01*
X162583333Y-118197619D01*
X163535714Y-119102380D02*
X162964285Y-119102380D01*
X163250000Y-119102380D02*
X163250000Y-118102380D01*
X163154761Y-118245238D01*
X163059523Y-118340476D01*
X162964285Y-118388095D01*
G04 #@! TO.C,J1*
X152916666Y-93282380D02*
X152916666Y-93996666D01*
X152869047Y-94139523D01*
X152773809Y-94234761D01*
X152630952Y-94282380D01*
X152535714Y-94282380D01*
X153916666Y-94282380D02*
X153345238Y-94282380D01*
X153630952Y-94282380D02*
X153630952Y-93282380D01*
X153535714Y-93425238D01*
X153440476Y-93520476D01*
X153345238Y-93568095D01*
G04 #@! TO.C,J2*
X152916666Y-121442380D02*
X152916666Y-122156666D01*
X152869047Y-122299523D01*
X152773809Y-122394761D01*
X152630952Y-122442380D01*
X152535714Y-122442380D01*
X153345238Y-121537619D02*
X153392857Y-121490000D01*
X153488095Y-121442380D01*
X153726190Y-121442380D01*
X153821428Y-121490000D01*
X153869047Y-121537619D01*
X153916666Y-121632857D01*
X153916666Y-121728095D01*
X153869047Y-121870952D01*
X153297619Y-122442380D01*
X153916666Y-122442380D01*
G04 #@! TO.C,J3*
X179916666Y-95152380D02*
X179916666Y-95866666D01*
X179869047Y-96009523D01*
X179773809Y-96104761D01*
X179630952Y-96152380D01*
X179535714Y-96152380D01*
X180297619Y-95152380D02*
X180916666Y-95152380D01*
X180583333Y-95533333D01*
X180726190Y-95533333D01*
X180821428Y-95580952D01*
X180869047Y-95628571D01*
X180916666Y-95723809D01*
X180916666Y-95961904D01*
X180869047Y-96057142D01*
X180821428Y-96104761D01*
X180726190Y-96152380D01*
X180440476Y-96152380D01*
X180345238Y-96104761D01*
X180297619Y-96057142D01*
G04 #@! TO.C,J4*
X179916666Y-110152380D02*
X179916666Y-110866666D01*
X179869047Y-111009523D01*
X179773809Y-111104761D01*
X179630952Y-111152380D01*
X179535714Y-111152380D01*
X180821428Y-110485714D02*
X180821428Y-111152380D01*
X180583333Y-110104761D02*
X180345238Y-110819047D01*
X180964285Y-110819047D01*
G04 #@! TO.C,R1*
X162583333Y-114102380D02*
X162250000Y-113626190D01*
X162011904Y-114102380D02*
X162011904Y-113102380D01*
X162392857Y-113102380D01*
X162488095Y-113150000D01*
X162535714Y-113197619D01*
X162583333Y-113292857D01*
X162583333Y-113435714D01*
X162535714Y-113530952D01*
X162488095Y-113578571D01*
X162392857Y-113626190D01*
X162011904Y-113626190D01*
X163535714Y-114102380D02*
X162964285Y-114102380D01*
X163250000Y-114102380D02*
X163250000Y-113102380D01*
X163154761Y-113245238D01*
X163059523Y-113340476D01*
X162964285Y-113388095D01*
G04 #@! TO.C,R2*
X164558333Y-90852380D02*
X164225000Y-90376190D01*
X163986904Y-90852380D02*
X163986904Y-89852380D01*
X164367857Y-89852380D01*
X164463095Y-89900000D01*
X164510714Y-89947619D01*
X164558333Y-90042857D01*
X164558333Y-90185714D01*
X164510714Y-90280952D01*
X164463095Y-90328571D01*
X164367857Y-90376190D01*
X163986904Y-90376190D01*
X164939285Y-89947619D02*
X164986904Y-89900000D01*
X165082142Y-89852380D01*
X165320238Y-89852380D01*
X165415476Y-89900000D01*
X165463095Y-89947619D01*
X165510714Y-90042857D01*
X165510714Y-90138095D01*
X165463095Y-90280952D01*
X164891666Y-90852380D01*
X165510714Y-90852380D01*
G04 #@! TO.C,R3*
X164558333Y-87602380D02*
X164225000Y-87126190D01*
X163986904Y-87602380D02*
X163986904Y-86602380D01*
X164367857Y-86602380D01*
X164463095Y-86650000D01*
X164510714Y-86697619D01*
X164558333Y-86792857D01*
X164558333Y-86935714D01*
X164510714Y-87030952D01*
X164463095Y-87078571D01*
X164367857Y-87126190D01*
X163986904Y-87126190D01*
X164891666Y-86602380D02*
X165510714Y-86602380D01*
X165177380Y-86983333D01*
X165320238Y-86983333D01*
X165415476Y-87030952D01*
X165463095Y-87078571D01*
X165510714Y-87173809D01*
X165510714Y-87411904D01*
X165463095Y-87507142D01*
X165415476Y-87554761D01*
X165320238Y-87602380D01*
X165034523Y-87602380D01*
X164939285Y-87554761D01*
X164891666Y-87507142D01*
G04 #@! TD*
M02*
